<svg xmlns="http://www.w3.org/2000/svg" width="309.8" height="309.8" viewBox="0 0 309.8 309.8"><g transform="translate(-39 -25)"><circle cx="154.9" cy="154.9" r="154.9" transform="translate(39 25)" fill="#e1e4e5"/><path d="M146.5,207.6h12.9v96.8H146.5Z" fill="#ff9811"/><path d="M146.5,304.3V291.4h12.9l25.8,12.9Z" fill="#ff9811"/><path d="M281.2,93s2.1,11.6-4.6,18.2c-6.6,6.6-18.2,4.6-18.2,4.6s-2.3-11.4,4.6-18.2c6.8-6.9,18.2-4.6,18.2-4.6Z" fill="#3473ea"/><path d="M288,186.2a29,29,0,0,1-58,0c0-23.2,29-69.7,29-69.7S288,163,288,186.2Z" fill="#3473ea"/><path d="M259,215.2a29.021,29.021,0,0,1-29-29c0-23.2,29-69.7,29-69.7Z" fill="#2741af"/><path d="M210.6,86.2l64.5,38.7-77.4-19.4Z" fill="#ff9811"/><ellipse cx="32.3" cy="26.4" rx="32.3" ry="26.4" transform="translate(152.5 65.7)" fill="#ccf8f3"/><ellipse cx="64.5" cy="35.5" rx="64.5" ry="35.5" transform="matrix(0.977, -0.214, 0.214, 0.977, 82.293, 163.419)" fill="#ccf8f3"/><path d="M153,148.3c-2.5.4-5.1.8-7.6,1.4C110.6,157.3,85.8,179,90,198.1c3.9,17.7,31.3,27.1,63.1,22.3V148.3Z" fill="#00d7df"/><path d="M206.7,184.9a9.709,9.709,0,0,1-9.7-9.7c0-13.4-11-26.7-21.6-39.7-11.3-13.7-22.9-28-22.9-44.3a9.7,9.7,0,0,1,19.4,0c0,9.4,9,20.4,18.6,32,12.2,14.8,26,31.6,26,51.9a9.816,9.816,0,0,1-9.8,9.8Z" fill="#ccf8f3"/><circle cx="4.8" cy="4.8" r="4.8" transform="translate(186.4 87.8)" fill="#003638"/><circle cx="9.7" cy="9.7" r="9.7" transform="translate(143.3 246.3)" fill="#ff9811"/><path d="M152.9,203.8a77.469,77.469,0,0,1-46.7-36.9c-15,10-26.1,31.9-24,42.5,2,10.4,37.7,16.3,70.7,11V203.8Z" fill="#006c70"/><path d="M172.5,206.4a70.819,70.819,0,0,1-19.6-2.7v16.6c2.5-.4,5.1-.9,7.6-1.4,16.2-3.5,30.2-10.2,40.2-18.1a72.043,72.043,0,0,1-28.2,5.6Z" fill="#00a0a6"/></g></svg>