<svg id="Livello_2" data-name="Livello 2" xmlns="http://www.w3.org/2000/svg" viewBox="0 0 331.73 25.27"><title>barra</title><path d="M73.47,155.69c1.94-3.1,3.81-5.77,5.49-8.67-1.51-.79-3.14.08-4.69-1a27.27,27.27,0,0,1,3.62-.93c3.52-.39,7-.67,10.58-1,2.2-.18,4.41-.35,6.62-.47s4.32-.19,6.48-.28c.1,0,.22,0,.31,0,.41.17.8.36,1.2.55.18-.61.68-.54,1.15-.54,2.74,0,5.49,0,8.23-.09.68,0,1.35-.11,2-.13l15-.5c1.32,0,2.64-.07,3.95-.14,2-.11,4-.29,5.94-.38,2.32-.1,4.64-.13,7-.2.57,0,1.14-.1,1.71-.11,2,0,4,0,6-.08a22.11,22.11,0,0,0,4.8-.31,11,11,0,0,1,2.5,0c2,0,3.92-.16,5.88-.23,1.21,0,2.42-.08,3.63-.09,2.59,0,5.17,0,7.76,0,.83,0,1.67.15,2.49.11a13.6,13.6,0,0,0,2.27-.37,18.46,18.46,0,0,1,6,0,16.5,16.5,0,0,0,2.33-.08,2.72,2.72,0,0,1,.47-.08c2.88.36,5.75-.09,8.62-.1s5.7,0,8.54-.14c2.37-.09,4.74-.34,7.11-.49.73,0,1.47,0,2.2,0,3-.12,5.92-.31,8.88-.4,2.1-.06,4.21,0,6.31,0,1.11,0,2.21-.24,3.32-.24,4.49,0,9,0,13.48,0,.95,0,1.9-.12,2.84-.18a3.48,3.48,0,0,1,.79,0c3.35.6,6.72-.09,10.08.28a50.9,50.9,0,0,0,5.52-.07c1.69,0,3.38.14,5.06.16.84,0,1.68-.11,2.52-.14,3.38-.1,6.76.54,10.15,0a.93.93,0,0,1,.62.07,5.92,5.92,0,0,0,3,.68,5.65,5.65,0,0,1,3.42,1.86,2.69,2.69,0,0,1,.71,1.53c.41,2.91.72,5.84,1.14,8.75.18,1.24.63,2.45.79,3.69.18,1.43.25,2.9-1.25,3.81a.61.61,0,0,0-.18.26c-.77,2.08-2.57,2.33-4.4,2.4q-7,.28-14,.48c-1.89.05-3.79,0-5.69,0-1,0-2.1.12-3.15.19l-.16,0c-3-.39-6,.4-9,.29-2.39-.08-4.78-.19-7.17-.24-.66,0-1.33.17-2,.22a41.37,41.37,0,0,1-7.21-.16c-1.73-.15-3.49.17-5.24.12-2.6-.07-5.17.41-7.81.23a100.46,100.46,0,0,0-11.64,0c-1.83.09-3.68-.08-5.52-.09-1.05,0-2.1.09-3.15.11-.62,0-1.25,0-1.88,0-3.73.06-7.46,0-11.18.24-1.38.07-2.74-.19-4.13,0a31.56,31.56,0,0,1-4.24,0c-2.53.05-5.06.2-7.59.18-1.88,0-3.76-.25-5.64-.34s-3.59-.12-5.39-.17c-3.57-.09-7.13-.24-10.7-.27-3.21,0-6.43,0-9.64.12-3.88.1-7.76.29-11.65.39-1.37,0-2.74-.13-4.11-.14-.57,0-1.13.21-1.69.24-4.11.19-8.22.44-12.34.5-4.47.06-8.94-.08-13.42-.11-2.42,0-4.85.08-7.27,0-2-.05-3.91-.23-5.86-.37-3.52-.25-7.05-.49-10.57-.78-1.68-.14-3.35-.42-5-.61-1.1-.12-2.21-.18-3.32-.29a3.77,3.77,0,0,1-3.62-3.72c-.16-2.5-.22-5-.35-7.49-.06-1.2-.22-2.41-.26-3.61a7.17,7.17,0,0,1,.21-1.72.89.89,0,0,1,1-.75c.6,0,1,.26,1.07.93.16,2.58,1.17,5,1,7.68A10,10,0,0,0,73.47,155.69Zm92.43,1.64c1-4.79,3.77-8.28,6.56-11.93l-2-.13a1.83,1.83,0,0,0-1.81,1q-2.5,4-5.09,8.05a9.81,9.81,0,0,1-1.65,2.12,6.65,6.65,0,0,0-1.68,1.54s-.18-.06-.45-.14c1.68-4.46,4.52-8.25,7-12.45-1.66,0-3.12,0-4.59,0a1,1,0,0,0-.69.26,19.54,19.54,0,0,0-1.56,2c-2.54,3.74-5.05,7.49-7.72,11.47,1.08,0,2,0,2.83,0,1.32-.05,2.64-.2,4-.2s2.77.16,4.16.19,2.86-.1,4.27,0c5,.32,9.92.48,14.88.45,3.48,0,7-.06,10.44-.12,3-.06,6-.19,9-.24,1.78,0,3.57.08,5.35.07s3.48-.12,5.22-.13c1.52,0,3.05.12,4.57.08,3.26-.07,6.52-.23,9.78-.33.94,0,1.9.08,2.85.07,2.37,0,4.74-.16,7.12-.19,2.53,0,5.07.08,7.59,0a37.68,37.68,0,0,1,6.46,0,46.63,46.63,0,0,0,6.77-.23c1,0,2.09.06,3.14.1a9,9,0,0,0,2.68.07c2.79-.84,5.63-.23,8.43-.55,1.77-.2,3.57-.06,5.36-.09,4.49-.1,9-.19,13.46-.32a13.48,13.48,0,0,0,2-.36,19,19,0,0,1-1.5-7.23c-.06-1.74-.1-3.48-.29-5.21-.14-1.25-.55-1.56-1.76-1.55a33.13,33.13,0,0,1-6.37-.36c-.08,0-.17.06-.27.07a18.84,18.84,0,0,1-2.12.24c-1.27,0-2.54-.05-3.81-.09s-2.52,0-3.79.07c-2.84.15-5.7.07-8.55.06-2.2,0-4.41-.07-6.61-.08-1.3,0-2.6.06-3.9.09s-2.32.09-3.48.08c-2.59,0-5.17-.08-7.76-.06s-5.27.14-7.91.19c-2.16,0-4.32,0-6.48.08-1.58,0-3.14.25-4.72.32-2.94.13-5.89.24-8.83.31a7.77,7.77,0,0,1-1.72-.37,1.76,1.76,0,0,1-.69.35,29.73,29.73,0,0,1-8,.25,2,2,0,0,0-1.92.73c-2.34,2.78-4.69,5.56-7.09,8.28a21.22,21.22,0,0,1-2.32,2l-.47-.33a13.33,13.33,0,0,1,2.93-5.18l4.19-5.11a9.64,9.64,0,0,1-2.25,0c-.93-.27-1.39.19-1.85.83-.34.47-.67.94-1,1.4a26.7,26.7,0,0,0-2.64,3.32,2.6,2.6,0,0,1-2.51,1.67c-.06,0-.13.15-.2.23.14.41.51.92.38,1.21a3.37,3.37,0,0,1-2.39,2.15,7.21,7.21,0,0,1,.27-2.11,27.89,27.89,0,0,1,3.34-5.86c.69-.83,1.23-1.78,2-3l-2.39.31c-2.11,3.63-8.79,11.26-10.42,11.9-.36-1.37.69-2.29,1.11-3.37a15.71,15.71,0,0,1,1.8-2.93c.67-1,1.42-2,2.09-3s1.66-1.59,2.37-2.81c-1.53-.14-2.77-.25-3.67.79s-2,2.46-2.92,3.72c-1.33,1.77-2.64,3.56-4,5.34-.33.43-.72.61-1.41.11.37-3.75,3-6.48,5.08-9.74-2.19.27-4.4-.81-5.74,1.56a.45.45,0,0,1-.25.2c-.83.28-1.08,1-1.46,1.71a14.59,14.59,0,0,1-.88,1.49,37.41,37.41,0,0,0-3.6,5.21A3.24,3.24,0,0,1,165.9,157.33Zm-59.35,2.82a1.52,1.52,0,0,1,0-1.69,30.94,30.94,0,0,1,4-5.67,27.69,27.69,0,0,1,4.6-5.13c.24-.18.26-.63.42-1h-2.7l-2.26,2.68c-.24.28-.5.55-.72.84-1.52,2-3,4.06-4.57,6a18.35,18.35,0,0,1-2.29,2.2,5.18,5.18,0,0,1-1.3.46,27.93,27.93,0,0,1,3.35-6.67,35.28,35.28,0,0,1,4.77-5.65h-4c-3.07,5.21-7.82,10.65-9.9,11.25a8.45,8.45,0,0,1,.6-1.52c.67-1.07,1.43-2.08,2.13-3.14a24.64,24.64,0,0,1,4.19-5.5c.22-.19.25-.62.37-1-2.66-.45-2.78-.39-4.25,1.8a7.37,7.37,0,0,1-.5.61,29.55,29.55,0,0,0-2.86,3.5,60.1,60.1,0,0,1-5.13,6.63,12.22,12.22,0,0,1-1.11,1c1,.08,1.69.17,2.36.18,3.58.08,7.16.23,10.74.18,3.16-.05,6.31.31,9.47.08,2.63-.19,5.27-.13,7.9-.24,4.11-.18,8.22-.41,12.34-.62,1.83-.09,3.66-.17,5.49-.28a45.5,45.5,0,0,1,8.5-.17A21.29,21.29,0,0,0,151,159c.53-.05,1.15-.28,1.07-1-.2-1.57.7-2.85,1.29-4.08,1.18-2.44,2.15-5.06,4.24-7a6.85,6.85,0,0,0,.84-1.33c-1.17,0-2.2,0-3.22,0-.3,0-.63.38-.85.66-.57.69-1.08,1.42-1.61,2.14-2.06,2.79-4.09,5.61-6.19,8.37a4.63,4.63,0,0,1-2.65,2,6.3,6.3,0,0,1,.24-2c1-1.91,2.1-3.79,3.27-5.61.94-1.46,2.06-2.8,3.07-4.21a11.57,11.57,0,0,0,.75-1.43c-1.94-.15-3.48-.14-4.64,1.44s-2.34,2.82-3.48,4.26c-1.45,1.81-2.83,3.67-4.29,5.47a9.89,9.89,0,0,1-1.39,1.17l-.36-.22c.23-.72.4-1.47.7-2.17s.82-1.36,1.12-2.09a22.06,22.06,0,0,1,3.74-6,13.09,13.09,0,0,0,1-1.7,14.68,14.68,0,0,0-2,0,2.14,2.14,0,0,0-1.23.54c-1.21,1.38-2.34,2.83-3.51,4.25-2,2.48-4.07,5-6.13,7.42a6.68,6.68,0,0,1-1.16.78c.23-2.93,1.91-4.8,3.23-6.76s3-3.86,4.52-5.77c-1.13-.76-2.24-.07-3.37,0a1.62,1.62,0,0,0-1.29.76c-1,1.43-2,2.85-3,4.24s-2.19,2.86-3.31,4.26c-.34.43-.67,1-1.49.77a2.08,2.08,0,0,1,0-.75c.4-.91.83-1.8,1.28-2.68,1.11-2.13,2.24-4.24,3.35-6.35a11.72,11.72,0,0,0-4.12.06,31.26,31.26,0,0,1-1.71,2.64c-1,1.2-2,2.31-3,3.48-1.63,1.92-3,4.08-4.9,5.77a3.79,3.79,0,0,1-.73.43c-.12-.18-.24-.29-.22-.36.14-.43.35-.84.47-1.27.78-2.74,2.48-5,4.18-7.15.91-1.18,2-2.24,3.14-3.53-1.47,0-2.67,0-3.86,0-.19,0-.41.3-.56.5-.84,1.07-1.61,2.2-2.51,3.23q-3.06,3.53-6.23,7C108.59,158.35,107.61,159.16,106.55,160.15Zm-25.9-1.76-.38-.24a9.91,9.91,0,0,1,.58-2.22c.85-1.58,1.81-3.1,2.78-4.61a11.36,11.36,0,0,1,2.08-2.77,11.43,11.43,0,0,0,1.51-1.74c-.84-.43-1.62-.47-2.13.15a12.8,12.8,0,0,0-1.89,2.9,2.36,2.36,0,0,1-1.49,1.47c-.13,0-.23.18-.38.31l.56,1-5.08,6.77,2.84.17,5.54.32c1,0,1.89.16,2.84.15.29,0,.84-.36.83-.51-.12-1.43.86-2.35,1.51-3.38,1.41-2.22,2.9-4.4,4.42-6.56.7-1,1.53-1.9,2.31-2.85-1.47-.58-2.54-.42-3.37.62-1.12,1.42-2.52,2.65-3.11,4.44a2.77,2.77,0,0,1-.55.78c-1.27,1.46-2.52,2.95-3.84,4.37a18.37,18.37,0,0,1-2,1.65c0-2,1.28-3.08,2.06-4.32s1.68-2.57,2.52-3.85l2.41-3.71-.2-.27a5.4,5.4,0,0,0-1.41.75,31.2,31.2,0,0,0-2.39,2.86c-1.75,2.37-3.43,4.8-5.19,7.17A7.19,7.19,0,0,1,80.65,158.39Zm-5.07,1.17a21.7,21.7,0,0,1,1-2.56c1.55-2.7,3.14-5.36,4.76-8a5.46,5.46,0,0,1,1.19-1.26.71.71,0,0,0,.14-1.1,2.68,2.68,0,0,0-2,1.4c-2,3.06-4,6.06-6,9.09-.39.58-.75,1.19-1.24,2ZM144,149.77c-.6-.81-.94-1-1.6-.14Z" transform="translate(-24.14 -139.1)"/><path d="M355.86,150.64a16.36,16.36,0,0,1-4.09,1.66c-2.5.45-5,.33-7.51.65a25.36,25.36,0,0,1-5.5.21c-1.83-.17-3.62.39-5.48-.11-1.21-.32-2.58,0-3.87-.09-1.52-.12-3-.4-4.53-.62-.15,0-.3-.2-.42-.18-2.87.41-5.71-.31-8.58-.22a14,14,0,0,1-4-.91,2.27,2.27,0,0,1-1-.73,1,1,0,0,1-.11-.85.83.83,0,0,1,.62-.37,8.38,8.38,0,0,1,1.11.07c2.43.08,4.85.16,7.28.21,1.21,0,2.42-.11,3.63,0,3.1.17,6.2.45,9.31.61,1,0,1.93-.19,2.9-.22,1.2-.05,2.4,0,3.6,0,3-.18,6-.4,9-.61a7.13,7.13,0,0,1,2.31-.19C352.19,149.38,354.16,149.13,355.86,150.64Z" transform="translate(-24.14 -139.1)"/><path d="M52.47,157.75c-.9,0-1.8,0-2.69,0-2.69-.1-5.38-.19-8.07-.34-2-.11-4.1-.23-6.13-.48-2.46-.31-4.91-.76-7.36-1.15-.94-.15-1.88-.36-2.82-.42-.69,0-1.17-.31-1.25-.95s.45-1,1.07-1.16a7.68,7.68,0,0,1,1.72-.19c1.53.06,3.07.18,4.6.27,2.47.15,4.94.27,7.41.47a32.19,32.19,0,0,0,6-.24,20.24,20.24,0,0,1,3.48,0c1.37.09,2.73.24,4.09.37.16,0,.34.08.47,0,1.82-.84,3.6.09,5.4.13a4,4,0,0,1,1.92.66c1,.64.92,1.41-.07,2.06-1.36.9-2.92.88-4.43,1-1.1.1-2.21,0-3.31,0Z" transform="translate(-24.14 -139.1)"/></svg>