<svg xmlns="http://www.w3.org/2000/svg" width="191.9" height="53.4"><path d="M62.3 53.4l-.2-.1.2-.2c.1 0 .3 0 .3.2s-.1.1-.3.1zm-2.1-.5v-.4c0-.4-.1-.5-.3-.5a.8.8 0 01-.5-.3l-.1-.2h.2a.4.4 0 00.4-.7l-.4-.3s-.2.1-.2.3c-.3.6-.6.8-1.5.8H57.2c-1.2 0-1.2 0-1.2-.3 0-.2 0-.2.2-.2a.9.9 0 01.2 0 .8.8 0 00.2 0 .7.7 0 00.4 0 .6.6 0 01.4-.2.3.3 0 00.2 0v-.4c0-.4-.3-.7-.6-.7a.2.2 0 00-.2 0l-.1.2h-.1a.7.7 0 00-.5-.3.6.6 0 01-.5-.1.4.4 0 010-.4c.1-.2.4-.4.6-.4a.8.8 0 00.6-.5.1.1 0 000-.1 1 1 0 00-.6-.1 1.8 1.8 0 00-.5 0 .3.3 0 01-.1 0 .2.2 0 01-.2 0 .7.7 0 01.2-.7 1 1 0 00.4-.7 1.1 1.1 0 01.3-.7c.4-.3.4-.3 0-.7a2.4 2.4 0 01-.2-2.2.6.6 0 01.6-.4l.2-.1a.2.2 0 000-.2v-.1a1.2 1.2 0 010-.2l-.4-.2a.7.7 0 00-.3-.1 1 1 0 00-.4.1c-.5.2-.5.4-.4 1.1a1.2 1.2 0 01-.2.7 1.2 1.2 0 000 1h.2l.1.3a.2.2 0 01-.2.2l-.3-.1a2 2 0 00-.4-.6c-.3-.3-.4-.4-.2-.6a1.4 1.4 0 00.1-1.4V42l.2-.4a.1.1 0 00-.1 0c-.2 0-.5.4-.6.8 0 .6-.4 1.2-.6 1.2-.2 0-.2-.4-.2-.8a1.2 1.2 0 00-.5-1.2c-.2-.2-.4-.4-.6-.4l-.1.3.3.3a.4.4 0 01.3.4.2.2 0 01-.2.1.2.2 0 00-.1.1.3.3 0 000 .2.3.3 0 01-.3.4 1.7 1.7 0 00-.6.5 1.2 1.2 0 01-.8.3.4.4 0 01-.1 0 .1.1 0 01-.1-.1l.3-.4a.5.5 0 00.3-.5.2.2 0 00-.2-.1l-.2.1a.2.2 0 01-.2.2l-.2-.3v-.3a1.2 1.2 0 00-.5.2.9.9 0 00-.4.6.7.7 0 01-.4.5.8.8 0 01-.3 0c-.2 0-.3 0-.6-.3-.3-.2-.4-.4-.6-.4l-.3.3a.7.7 0 01-.5.3c-.3 0-.4.2-.4.7s-.2.6-.5.6a.3.3 0 00-.3.3.4.4 0 00.3.5l.2.1-.4.1a1.7 1.7 0 01-.2 0c-.4 0-.5-.1-.5-.4a.4.4 0 01.3-.5c.3 0 .3-.2.3-.3 0-.1-.1-.3-.5-.3-.3 0-.4.1-.4.3a2.2 2.2 0 01-.1.6l-.2.2-.2-.2c-.1-.2-.3-.2-.3-.2l-.4.2a1.6 1.6 0 01-.8.3 2 2 0 00-.7.2.5.5 0 01-.3 0 1.3 1.3 0 01-.3 0 1.2 1.2 0 00-.3 0 .3.3 0 00-.2.1.4.4 0 01-.4.3c-.3 0-.8.3-1.4 1l-.5.2a.8.8 0 01-.3 0 1.6 1.6 0 01-.7-.6.5.5 0 00-.3-.2.3.3 0 00-.4.3 1.7 1.7 0 01-.1.6 1.8 1.8 0 00-.3.8l-.1.4a.2.2 0 01-.1 0 .1.1 0 01-.1 0 .4.4 0 010-.2c0-.3-.1-.4-.2-.4a1.1 1.1 0 00-.6.3 1.4 1.4 0 01-.8.4.5.5 0 01-.3-.2.2.2 0 00-.1 0c-.1 0-.3 0-.5.2a1.2 1.2 0 01-.6.4.6.6 0 00-.5.3c0 .2-.1.2-.2.2a.3.3 0 01-.1 0 .4.4 0 00-.3-.2.8.8 0 00-.3 0 5.2 5.2 0 01-1.5.5.4.4 0 01-.4-.1.6.6 0 010-.6c0-.3.2-.4.5-.4a.4.4 0 00.3 0 .1.1 0 000-.2l-.5-.2h-.2c0 .2-.1.3-.3.3a1.2 1.2 0 00-.6.2c-.3.2-.3.3-.1.5.1.3.2.5.1.6l-.3.2a.7.7 0 00-.5.4c0 .2-.1.3-.2.3-.2 0-.4-.3-.6-.7a1.3 1.3 0 01-.1-.7l.2.2a1.1 1.1 0 00.8.3l.1-.1a5.7 5.7 0 00-.3-.7 5 5 0 01-.5-.7l-.1-.1a1.1 1.1 0 00-.4 0 .6.6 0 00-.4.6c0 .4-.8 1-1.2 1a.3.3 0 010-.1l-.3-.3.4-.3c.4-.2.4-.2.3-.8s0-.6.4-.8l.3-.4s0-.3-.4-.5a1.2 1.2 0 00-.8-.3 2.2 2.2 0 00-.2 0l-.6.1V46v-.6a.3.3 0 00-.1 0 .4.4 0 00-.4.3.9.9 0 000 .8.8.8 0 01.2.7.2.2 0 01-.2.1 2.5 2.5 0 01-.7-.5 3.5 3.5 0 00-.8-.6.2.2 0 010-.3.4.4 0 01.3-.4.2.2 0 01.2.3l.1.2c.1 0 .3-.2.4-.5a2 2 0 01.4-.6.2.2 0 000-.1.2.2 0 000-.2.3.3 0 00-.2.1l-.2.2-.4-.8a2 2 0 01-.2-1.2c0-.2.2-.4.3-.4l.2.2c0 .2.3.4.5.4a.4.4 0 00.3 0v-.2H24a.6.6 0 01-.5-.3.8.8 0 01-.1-.6.5.5 0 000-.4c-.2-.2-.4-.2-.7-.2l-.3-.1c0-.1 0-.2.3-.3.1-.1.2-.2.1-.3 0-.2-.2-.3-.5-.3s-.4.1-.4.6a1.6 1.6 0 000 .8.8.8 0 01.2.6 1 1 0 01-.4.7.7.7 0 01-.3.1c-.1 0-.2 0-.3-.2l-.2-.2.1-.1a.6.6 0 00.3-.4V42a.2.2 0 00-.1 0 1.6 1.6 0 00-.2 0c-.7 0-1 .2-1 .4a.5.5 0 01-.5.5.3.3 0 01-.1 0c-.2-.2-.2-.3 0-.5l.3-.7a.8.8 0 000-.7.5.5 0 00-.4-.3.3.3 0 00-.2 0 .6.6 0 00-.2.5 7.1 7.1 0 010 .8c0 .5 0 .6-.4.6H18c-.4 0-.5 0-.5.4a.4.4 0 000 .2.2.2 0 00.2.1l.4.1v.4a.4.4 0 01-.4.2.5.5 0 01-.3 0 .4.4 0 01-.2-.4c0-.2 0-.4-.2-.4a.4.4 0 00-.3.2.8.8 0 01-.5.2.8.8 0 00-.5.4c-.1.2-.2.2-.3.2a1 1 0 01-.4-.1.8.8 0 00-.3-.2c-.2 0-.3 0-.5.3a1.5 1.5 0 01-.7.4c-.2 0-.3 0-.3.2s-.1.1-.3.1a2 2 0 00-.8.4 1.2 1.2 0 01-.6.3.2.2 0 01-.1 0 .5.5 0 010-.4.5.5 0 00-.1-.5c-.2 0-.4.2-.6.4a.5.5 0 00-.1.4.2.2 0 010 .2.6.6 0 01-.5.3.4.4 0 01-.2 0c-.1-.1-.2-.3-.1-.5a.6.6 0 00-.1-.5.7.7 0 00-.6-.3.5.5 0 00-.4.3.4.4 0 000 .4.4.4 0 00.3.2h.1v.3a.6.6 0 01-.5.3.4.4 0 01-.3-.3.5.5 0 00-.5-.3.2.2 0 00-.2.2l-.6.4a2 2 0 01-.6.1.7.7 0 01-.4-.1l-.3-.4h.1a3.9 3.9 0 01.4-.2c.6 0 1-.3 1-.7a.5.5 0 00-.3-.4.3.3 0 01-.2-.2.6.6 0 000-.5l-.2-.1a.4.4 0 00-.2 0 1.6 1.6 0 00-.4.6 1.1 1.1 0 01-1 1 1.4 1.4 0 01-.6-.2c-.2 0-.2-.1-.2-.2l.2-.1c.2 0 .3-.2.3-.6a1.2 1.2 0 01.2-.7.5.5 0 00.2-.5.8.8 0 01.1-.6 1 1 0 00.2-.9.2.2 0 00-.2-.1.8.8 0 01-.4-.4 1 1 0 00-.7-.3c-.4 0-.5-.2-.5-.3s0-.3.2-.4c.2 0 .4-.2.4-.3 0-.2-.3-.3-.6-.3a.5.5 0 00-.3 0 .3.3 0 01-.2.1.2.2 0 01-.1 0c0-.1 0-.3.3-.5l.5-.4a1.2 1.2 0 01.3-.5.6.6 0 00.2-.5l-.2-.2-.3.2a1.5 1.5 0 01-.6.3 3.1 3.1 0 00-.9.5l-.9.5s-.2 0-.3-.3c0-.3 0-.4.3-.7a1.2 1.2 0 01.6-.4.7.7 0 00.4-.3 1.2 1.2 0 01.8-.4 1.5 1.5 0 001-1.1.4.4 0 00-.2-.5.2.2 0 00-.1 0c-.3 0-.7.3-.7.5s-1.3.8-1.7.8a.3.3 0 01-.2-.3.2.2 0 01.2-.1c.2 0 .6-.4 1-.7l.2-.6v-.2l.3-.1c.4 0 1.2-1 1.2-1.5 0-.4 0-.5.4-.5a1.2 1.2 0 00.8-.6 5 5 0 01.8-1l.5-.6-.1-.2a2.2 2.2 0 01-.5-.5l-.3-.4c-.1 0-.3.1-.4.4 0 .3-.2.5-.5.5a1.2 1.2 0 01-.4-.1 1 1 0 00-.3-.1s-.2 0-.2.2-.2.1-.2.1a.3.3 0 01-.2 0l-.2-.4.6-.2c.4 0 .6-.2.6-.3v-.1a4 4 0 01-.9-.7c-.4-.3-.5-.5-.5-.6a1.1 1.1 0 01.7.2l.2.2v-.6a1 1 0 000-.6.1.1 0 00-.2 0 .5.5 0 01-.3-.2 1.4 1.4 0 01-.3-1c0-.3 0-.5.2-.5s.5.4.7 1.1l.2.3.1-.2a1 1 0 000-1 .4.4 0 00-.3-.2c-.2 0-.3-.2-.3-.2l.1-.3a.3.3 0 00.2-.3.2.2 0 00-.2-.2.3.3 0 00-.1 0 .5.5 0 01-.2 0 .4.4 0 01-.3 0 1.3 1.3 0 010-1 3 3 0 00.4.1.7.7 0 01.4.4.4.4 0 00.4.3.6.6 0 00.5-.3.5.5 0 000-.5.3.3 0 00-.1-.2.5.5 0 00-.3.1.5.5 0 01-.3.1.7.7 0 01-.5-.2.9.9 0 01-.2-.6c0-.3 0-.5.2-.5l.2.3a.4.4 0 00.4.2l.1-.1c0-.2-.4-.6-.8-.8a.4.4 0 01-.2-.3 1 1 0 01.1-.8l.3-.2.3.4c.3.3.5.5.7.5s.3-.2.3-.5c0-.4-.2-.7-.6-.7a.9.9 0 00-.2 0 .8.8 0 01-.2 0c-.2 0-.3 0-.4-.3a1.7 1.7 0 00-.7-.7l-.6-.2.5-.1a1.2 1.2 0 01.4-.1 1.7 1.7 0 011.2.6l.3.2.1-.2c0-.2.3-.3.5-.3s.5.1.5.4a.6.6 0 00.1.4.1.1 0 00.1 0c.2 0 .4-.3.4-.6 0-.2.1-.3.2-.3a.1.1 0 00.1 0 .1.1 0 000-.1.3.3 0 00-.2-.1.6.6 0 00-.2 0 .5.5 0 01-.1 0 .1.1 0 01-.1 0v-.3-.4h-.1c-.1 0-.2 0-.4.3l-.4.3-.4-.3c-.2-.2-.1-.3.2-.5a1 1 0 01.6-.3.3.3 0 00.2 0 .5.5 0 00.4-.2 2.1 2.1 0 011.7-.6c.4 0 .7-.1.8-.4a5.5 5.5 0 012.2-1 .2.2 0 01.2.1.6.6 0 01-.2.7 3.2 3.2 0 01.5 0v-.3c0-.4.6-.9 1.2-1.2a4.4 4.4 0 012-.8.7.7 0 00.2 0 .8.8 0 00.8-.6c0-.2 0-.2.3-.2a3.3 3.3 0 01.4 0 3 3 0 00.4 0c.3 0 .4 0 .6-.4a1 1 0 011-.4 2.6 2.6 0 001-.4 2.4 2.4 0 011.2-.4c.3 0 .4.1.4.3.1.2.8.5 1.2.5a.6.6 0 00.3 0c.2-.2.3-.3.2-.4l-.2-.1a2.3 2.3 0 01-.7-.3c-.3 0-.4-.2-.4-.3V11a.8.8 0 01.7-.3.6.6 0 00.4-.2c.2-.5 2-1 3.3-1h.3a.3.3 0 00.3-.3.5.5 0 00-.1-.5c-.2-.1-.2-.3 0-.4 0-.2.2-.2.2-.2l.2.1a3.4 3.4 0 001.8.5.7.7 0 00.4 0 .7.7 0 01.5-.2.5.5 0 01.5.4 1 1 0 00.3.5.4.4 0 01.2.5.3.3 0 01-.4.2.2.2 0 00-.2.2.2.2 0 00.2.3.4.4 0 00.4-.3.8.8 0 01.7-.5.2.2 0 01.1 0 1 1 0 00.7-.6c0-.1 0-.2-.2-.2a.6.6 0 00-.4.2.8.8 0 01-.5.3.2.2 0 01-.1 0v-.2a4.3 4.3 0 01.6-.9l.6-.6.2.2a1.2 1.2 0 01.1.5.8.8 0 00.3.6.5.5 0 00.3.2.7.7 0 00.4-.3l.2-.3.3.4.1.4a.2.2 0 01-.1 0 1 1 0 00-.7 1l.2.2a.7.7 0 00.5-.4l.4-.3c.1 0 .2.1.2.4s0 .5.2.5.4-.2.5-.5a1.7 1.7 0 00.2-1v-.5s.2 0 .4.3c.3.4.4.6.4 1.7V12l.4-.1a1.4 1.4 0 01.2 0c.2 0 .4 0 .5.2a2 2 0 01.3.8v.3a.2.2 0 01-.2 0 3.2 3.2 0 01-.7 0 1.2 1.2 0 00-.3-.1l-.1.2a.3.3 0 00.2.3 1.5 1.5 0 01.8.2.6.6 0 00.3.1c.3 0 .6-.2 1.2-.8a1.7 1.7 0 01.7-.5c.2 0 .4-.2.5-.4s.3-.4.5-.4a.5.5 0 01.1 0 .4.4 0 00.2 0h.1c0-.1.2-.2.5-.2.4 0 .4-.1.4-.5a.8.8 0 01.8-1c.3 0 .4 0 .4-.3 0-.4.1-.6.3-.6a1 1 0 01.4.2.8.8 0 00.4 0c.1 0 .2 0 .4-.3a2 2 0 00.4-.7.8.8 0 01.4-.5 7.5 7.5 0 00.9-.8c.3-.4.5-.5.8-.5a4.9 4.9 0 01.5 0 3.8 3.8 0 00.5.1l.4-.1a.6.6 0 01.4-.3c.2 0 .3-.2.3-.3 0 0-.2-.2-.5-.2h-.5l.4-.2a1.5 1.5 0 00.6-.6 2.8 2.8 0 011-.7 2.6 2.6 0 001-.7 2 2 0 01.7-.7 1 1 0 01.5-.2 1.1 1.1 0 01.5.1 1.7 1.7 0 00.7.3c.2 0 .3-.1.3-.3a1 1 0 01.3-.6.6.6 0 00.4-.6.6.6 0 010-.5.7.7 0 01.6-.3.5.5 0 01.3 0 1.5 1.5 0 00.6.2.8.8 0 01.5.4.4.4 0 010 .4.2.2 0 00.2.3c.1 0 .2-.2.2-.6a.5.5 0 01.4-.3.8.8 0 00.5-.2.2.2 0 01.2-.1 1 1 0 01.4.2 2 2 0 00.7.2c.2 0 .3.2.3.6s.2.7.4.7a.4.4 0 00.3-.1l-.1-.7c-.2-.3-.2-.5 0-.6a.4.4 0 01.2-.1l.3-.3.2-.5.2.4c.2.2.2.4.1.5l-.3.1c-.2 0-.4 0-.4.2 0 0 0 .3.4.6a1 1 0 00.6.3c.2 0 .3-.1.4-.4a.5.5 0 01.4-.5.7.7 0 00.5-.5 3.4 3.4 0 01.1 1c0 .9 0 1.3.2 1.5a.3.3 0 00.2 0 .5.5 0 00.2 0c.2 0 .3-.2.2-.6v-.6h.1l.4.2a.8.8 0 00.6.3.5.5 0 00.4-.3l.1-.2.2.2a1 1 0 01-.1.7 1 1 0 00.1.9.6.6 0 00.5.3.3.3 0 00.2-.2.2.2 0 01.2 0 .6.6 0 01.3 0c.2.2.2.3.1.5a.6.6 0 000 .6.3.3 0 00.3.1.6.6 0 00.1 0 .9.9 0 01.2 0 .1.1 0 01.1 0v.3a.5.5 0 000 .4c.2 0 .3-.1.4-.4a.8.8 0 01.7-.5.4.4 0 01.3.1.3.3 0 010 .3c0 .2-.1.3-.3.3a.4.4 0 00-.2 0 .1.1 0 00-.2 0c0 .1 0 .3.2.5a1.6 1.6 0 01.3.6l.4.4a1 1 0 00.3 0h.1l-.2-.2V7c0-.1 0-.3.2-.3a6.1 6.1 0 011 1 4.3 4.3 0 001 1.1.4.4 0 01.4.3l.2.2.1-.2c0-.2.3-.2.6-.2s.6 0 .7.2.1.4 0 .4a.2.2 0 000 .1v.3a.3.3 0 00.3.1.8.8 0 00.1-.7 1.7 1.7 0 00-.8-1c-.4-.3-.6-.4-.6-.6a.1.1 0 01.2 0s.3 0 .7.4a1.9 1.9 0 001.1.5.6.6 0 00.4-.1 2.9 2.9 0 011.6-.6 1 1 0 01.2 0 1.3 1.3 0 00.2 0l.4-.1a.5.5 0 01.4-.3.5.5 0 00.4-.2.3.3 0 01.3-.2 1.2 1.2 0 01.3 0 1.2 1.2 0 00.2 0c.5 0 .9-.2.9-.4 0-.3.6-.6 1.4-.6a2.9 2.9 0 01.4 0 3.2 3.2 0 00.4 0h.4s0-.2-.2-.3a.3.3 0 01-.2-.2 2.9 2.9 0 011.5-.6.8.8 0 00.5-.3.6.6 0 01.4-.1 3.3 3.3 0 01.5 0c.6 0 .9.2 1 .3 0 0 0 .2-.2.3v.6l.4.4.1-.3a1.3 1.3 0 01.3-.7.5.5 0 000-.5.5.5 0 00-.5-.2.3.3 0 01-.3-.3c0-.3.2-.4.5-.4a1.3 1.3 0 01.4 0 .9.9 0 00.4.1.8.8 0 00.4-.2.7.7 0 01.4-.1 1.6 1.6 0 01.6.2 3 3 0 01.8.5 1.2 1.2 0 00.8.3.7.7 0 00.5-.1.4.4 0 01.3-.1c.5 0 1.2.4 1.2.8 0 .3.1.4.2.4s.2-.1.2-.3c0-.5.4-1 .7-1a1.1 1.1 0 00.7-.3l.3-.3v.5c-.2.6-.2.9-.1 1a.2.2 0 00.1 0 .4.4 0 00.1 0c.2 0 .3-.1.2-.5a.8.8 0 010-.3l.2.1.3.2a.6.6 0 00.2 0 .6.6 0 01.3-.2 1 1 0 01.6.3c.3.3.5.5.5.7l-.3.1a1.1 1.1 0 00-.5.1l-.2.2.2.3a.7.7 0 00.5.2.4.4 0 00.4-.3.6.6 0 01.3-.4l.1-.1a1.8 1.8 0 00-.1-1.3s-.1-.2 0-.2a2.3 2.3 0 01.7.5c.7.6.7.6.6 1.3a2 2 0 000 .9 10.1 10.1 0 01.4 1.3c.2 1 .2 1.1 0 1.6-.3.4-.3.4.2.8l.4.4.4-.3a1.1 1.1 0 01.7-.3c.3 0 .5.2.7.6.4.6.7 1 1 1l.3-.6v-.2l.3.3c.1.4.4.6.5.6l.1-.2a.2.2 0 01.2-.3 2.4 2.4 0 011.3 1.3.4.4 0 00.3.4c.2 0 .3.1.3.2v.3c.1 0 .2 0 .3-.2a.6.6 0 01.4-.1.2.2 0 01.1 0 .6.6 0 00.4.1 1 1 0 00.7-.2l.2-.2a.8.8 0 01.1.6v.5a.7.7 0 00.2 0 .4.4 0 01.2 0h.1a.9.9 0 00.3.5l.3.2.3-.2a.6.6 0 00.1-.5.2.2 0 010-.2.1.1 0 01.1 0 .2.2 0 01.2.2 1.3 1.3 0 00.3.6l.4.2a2 2 0 00.7-.3.7.7 0 01.4-.1 1.4 1.4 0 01.6.2 1.6 1.6 0 00.5.2l.4-.2c.2-.2.2-.4.2-.5a.1.1 0 00-.1 0 .5.5 0 00-.4 0l-.3.3-.1-.2a.5.5 0 01.3-.7 1.2 1.2 0 01.2 0 .6.6 0 01.5.2l.2.2.3-.4.2-.6.3.4a.8.8 0 00.5.2c.2 0 .2 0 .2.2a.2.2 0 00.2.2 1 1 0 00.7-.5.6.6 0 01.7-.5 2.6 2.6 0 001.1-.3 2.9 2.9 0 011.2-.4 2.3 2.3 0 00.8-.1s.2 0 .3.2l.3.3a1.5 1.5 0 00.5-.2c.4-.2.6-.4.6-.5h-.3c-.2 0-.4-.2-.4-.3l.2-.4a1 1 0 01.6-.2 1 1 0 01.2 0 1 1 0 00.2 0l.2-.1c0-.1 0-.2.2-.2a.4.4 0 01.3.2.4.4 0 00.3.3.3.3 0 00.4-.2.5.5 0 00-.2-.5c-.2-.1-.2-.3-.2-.4a.2.2 0 01.2 0 .7.7 0 01.3 0 .9.9 0 00.5.2c.2 0 .4-.1.5-.4a.5.5 0 01.5-.4.6.6 0 00.1 0h.3c0-.2.1-.2.3-.2a.8.8 0 00.5-.4c.2-.3.4-.4 1-.4h.2a.7.7 0 01.8.4l.3.3a1 1 0 00.4-.2 1.2 1.2 0 01.5-.1c.2 0 .3 0 .3.2a2.2 2.2 0 00.8 1.1.3.3 0 000-.3.5.5 0 01-.1-.6.3.3 0 01.3-.2c.1 0 .3 0 .3-.2a.2.2 0 01.2-.1.6.6 0 010 .4.7.7 0 00.2.7.4.4 0 00.3.1.8.8 0 00.2 0 .6.6 0 01.2 0h.2a4.8 4.8 0 002 1.8.3.3 0 00.2-.2c0-.2 0-.4-.3-.6-.2-.3-.2-.3.1-.7l.4-.3v.5a1.6 1.6 0 00.3 1c.2.2.3.4.2.5H134.2l.2.3c.1.2.2.2.3.2a.3.3 0 00.2 0 .4.4 0 01.2-.1.3.3 0 01.3.3 2.5 2.5 0 01-.3.8 1.3 1.3 0 00-.2.7 2 2 0 00.8.2h.2c.7 0 1-.1 1.2-.3a1.2 1.2 0 01.7-.3 5.7 5.7 0 002.6-.8 1.4 1.4 0 011-.3h.3c.7 0 1.1-.1 1.3-.3a.5.5 0 000-.4.4.4 0 010-.4.8.8 0 01.7-.2 1 1 0 00.7-.3.8.8 0 01.5-.1c.3 0 .6 0 .6.3l.5.3a1.2 1.2 0 01.6.5 1.3 1.3 0 00.4.5.7.7 0 01.3.5.8.8 0 00.2.5 1.5 1.5 0 01.4.6l.3.4h.1a2.4 2.4 0 000-1.5l-.1-.4c.4 0 1.3.6 1.3.9l.2.1a1.4 1.4 0 00.3 0 1 1 0 01.2 0 .7.7 0 01.6.2.6.6 0 010 .6 1 1 0 01-.2.4.1.1 0 000 .1.4.4 0 000 .3.5.5 0 00.4.2c.1 0 .2-.2.2-.5 0-.4.1-.5.5-.7.3 0 .4 0 .5-.2a.3.3 0 000-.2 2.3 2.3 0 01-.2-.6l.4.2a1.4 1.4 0 00.7-.3.9.9 0 01.5-.1.4.4 0 01.1 0 .6.6 0 00.1 0 .7.7 0 00.5-.1.5.5 0 01.3-.2.3.3 0 01.2.1.3.3 0 010 .4.4.4 0 00.1.3.2.2 0 00.2.1.4.4 0 00.3 0 .6.6 0 01.3-.2 1.3 1.3 0 011 .5.6.6 0 00.5.2c.1 0 .2 0 .2-.3a.4.4 0 00-.4-.3.5.5 0 01-.4-.4 1.2 1.2 0 00-.4-.6l-.2-.2.4-.2a3.6 3.6 0 011.3-.2h.6l-.1.3a1 1 0 00-.3.9.1.1 0 00.2 0s.2 0 .2-.2a.4.4 0 01.4-.4l.1.2.4.2s.2 0 .4.3a2.2 2.2 0 01.5 1.3.4.4 0 00.2.3.6.6 0 00.4.2 4 4 0 00-.3-2v-.5a.2.2 0 010-.1c.3 0 .8.4.8.7a1.1 1.1 0 00.2.6h.1l.4-.2a1.6 1.6 0 01.8-.6 1.2 1.2 0 00.5-.2.6.6 0 01.5-.2.3.3 0 01.3.3.8.8 0 01-.4.8.6.6 0 00-.4.6l.1.4a1.6 1.6 0 00.6-.2.7.7 0 00.4-.5.5.5 0 01.4-.5.2.2 0 01.1 0 1.3 1.3 0 010 .6.7.7 0 00.1.5.2.2 0 00.2 0 .6.6 0 00.3-.1l.3-.2.3.3c.1.2.2.4 0 .5l-.1.3.3.1a2.6 2.6 0 001-.3 11 11 0 001.5-1c.7-.6 1.1-.8 1.4-.8a.2.2 0 01.2.1.4.4 0 00.3.3.2.2 0 00.3-.3.6.6 0 01.3-.4.8.8 0 00.3-.5.4.4 0 01.5-.4.6.6 0 00.4-.3 1.2 1.2 0 01.5-.4l1-.5a2.2 2.2 0 01.8-.3c.2 0 .3 0 .3-.2s.3-.3.6-.4a1.2 1.2 0 00.7-.5.8.8 0 01.3-.4.2.2 0 01.1 0v.9c.2 0 .4.2.5.5l.3.4s.2 0 .3-.2a1 1 0 01.4-.2l.2-.4.1-.2a.4.4 0 01.2 0 .3.3 0 00.1 0 .7.7 0 00.5-.2l.3-.2.2.2.2.5-.2.1a.4.4 0 00-.3.3v.3a1 1 0 00.2 0l.5-.7c.3-.4.4-.5.8-.5a.8.8 0 01.5.1.1.1 0 010 .2.2.2 0 00-.2.1.1.1 0 00.2.2c.3 0 .5.2 1.9 1.5a5.5 5.5 0 001.2 1 .2.2 0 00.2-.2.6.6 0 00-.1-.5.3.3 0 010-.4.4.4 0 01.3 0 .6.6 0 00.3.2l.1.4v.5h-.2a.5.5 0 00-.5.4.5.5 0 000 .5.6.6 0 00.4.3l.3.2a.4.4 0 00.4.3.3.3 0 00.2-.2 1.3 1.3 0 000-.6c-.1-.4-.2-.5-.1-.6 0 0 .2 0 .4.3a1 1 0 01.4.8 1.4 1.4 0 01-.6 1c-.3.3-.5.5-.4.7v.1h-.1a.4.4 0 00-.3-.2.3.3 0 00-.2.1s-.1.1 0 .2v.1c.4.2.4.5.4 2 0 1 0 1.1-.6 1.7a2.5 2.5 0 00-.5.7l-.4.1c-.7 0-1.2.5-1.2 1l.1.3c.1 0 .2 0 .3-.2 0-.2.1-.3.2-.3a.2.2 0 010 .2.7.7 0 00.2.6c0 .2.1.3 0 .4a1.3 1.3 0 01-.5 0 1.9 1.9 0 00-.6-.1c-.3 0-.7.1-.7.3a1.8 1.8 0 01-.2.7 2.2 2.2 0 00-.2 2c.3.5.4 1 .2 1.1a.2.2 0 01-.1.1l-.4.1c0 .1 0 .3.3.6.3.4.6.7.8.7.2 0 .2-.1.3-.3a.4.4 0 01.4-.3c.4 0 1 .5 1 .7a1 1 0 00.3.5.6.6 0 01.2.5.1.1 0 000 .2.3.3 0 00.2 0 .7.7 0 00.5-.1.5.5 0 00.2-.5.2.2 0 00-.2-.1c-.2 0-.3-.2-.3-.4s.2-.3.3-.3a.3.3 0 01.3.2c0 .2.3.3.6.3a1.6 1.6 0 011 .4 1.7 1.7 0 00.6.4v.2a.7.7 0 000 .6 1.1 1.1 0 00.4.7 2.8 2.8 0 011.1 1 1.1 1.1 0 01.2 1 .7.7 0 000 .7l.3.3a.8.8 0 00.4-.3 1 1 0 01.5-.2c.2 0 .3.1.3.3 0 .4-.6.7-1.3.7h-.4v.6c0 .4.1.6.2.6s.2 0 .3-.2.2-.2.3-.2l.1.2a2.8 2.8 0 01.3 2c-.2.4-.2.5 0 .8a.8.8 0 01.2.7c0 .3 0 .3-.2.3a1 1 0 01-.3 0 .6.6 0 01-.5-.5.4.4 0 00-.4-.3 19 19 0 01-1-.1c-.1 0-.2 0-.2.2v.1a.1.1 0 00.1 0c.2 0 .2.1.2.3 0 .3 0 .4.2.4 0 0 .2 0 .3-.2a.4.4 0 01.2-.2.1.1 0 01.2 0 .5.5 0 010 .5 2.2 2.2 0 000 .5 2.4 2.4 0 010 .7c0 .3-.2.5-.6.6a.8.8 0 00-.6.6l-.2.4s-.2 0-.3-.2a1.1 1.1 0 00-.7-.3c-.4 0-.6.4-.6 1.2a.5.5 0 01-.6.4.4.4 0 01-.4-.3c0-.2-.2-.3-.3-.3a1 1 0 00-.6.3 1.1 1.1 0 01-.8.3 1.8 1.8 0 01-.7-.1.9.9 0 00-.4-.2l-.3.3-.4.3c-.1 0-.2-.1-.3-.5l-.3-.6-.4.5-.5.4.4.3.3.3-.2.1a2.2 2.2 0 01-.5-.1 3.7 3.7 0 00-1-.2c-.2 0-.4.1-.4.5l-.3.4a.6.6 0 01-.2 0 1.2 1.2 0 01-.5-.5.7.7 0 00-.6-.4.4.4 0 00-.3.2.8.8 0 00-.2.6v.3l-.3-.2a1.1 1.1 0 00-.5-.2l-.1.3a1.6 1.6 0 01-.2.7 1.7 1.7 0 00-.3.9c0 .4 0 .5-.2.6a.2.2 0 01-.2 0 .6.6 0 010-.4c0-.3-.2-.4-.4-.4-.1 0-.3.1-.4.4 0 .3-.2.4-.3.4-.2 0-.3 0-.3-.2a.3.3 0 010-.3.8.8 0 01.5-.3v-.1c0-.2-.3-.5-.5-.5l-.1.4c0 .2-.1.4-.4.4a.6.6 0 01-.4-.2l-.2-.1h-.1a.3.3 0 01-.3.2.3.3 0 01-.1 0 .5.5 0 00-.1 0 2.3 2.3 0 00-.8.1 1.7 1.7 0 01-.5.2l-.4-.2a.7.7 0 00-.5-.3c-.1 0-.2 0-.3.3a.4.4 0 01-.4.3.6.6 0 01-.5-.2.6.6 0 00-.4-.3.3.3 0 00-.3.2s.1.3.4.4c.2.2.5.4.5.6s0 .3-.2.3-.2-.1-.3-.4-.1-.3-.2-.3l-.6.4-.3.2a.4.4 0 01-.3-.1 1.2 1.2 0 00-.6-.2 1.2 1.2 0 00-.2 0c-.4 0-.6 0-.7-.2a.3.3 0 00-.2-.2 2 2 0 00-.5.1 2.4 2.4 0 01-.6.1.3.3 0 01-.2 0V47v-.2l-.4-.1a2.4 2.4 0 00-.8.1.8.8 0 01-.4.1.2.2 0 01-.1 0 .2.2 0 010-.2.8.8 0 01.6-.5 1.2 1.2 0 00.6-.2l.2-.2-.3-.2a1 1 0 00-.4-.2.6.6 0 00-.3.1 1.2 1.2 0 01-.5.1 1.2 1.2 0 01-.3 0 1.1 1.1 0 00-.2 0 .5.5 0 00-.4.2l-.3.2h-.2v-.3H160.6l-.1-.4a.7.7 0 010-.7.5.5 0 01.4-.2h.3v-.1a.8.8 0 00-.5-.2.8.8 0 01-.7-.3l-.3-.3-.2.1-.2.2s0 .2.3.3.2.2.2.3l-.2.3c-.2.3-.2.4 0 .7v.4a1.5 1.5 0 01-.6-.4 1.8 1.8 0 00-.8-.5.4.4 0 01-.3-.2.3.3 0 010-.3.3.3 0 01.3-.1.3.3 0 01.3.2.5.5 0 00.4.2.2.2 0 00.2-.2l-.7-.7a2.4 2.4 0 00-1-.5c-.2 0-.2.3-.2.7 0 .9 0 .9-.7 1a1.5 1.5 0 01-.3 0c-.2 0-.2 0-.3-.2a.4.4 0 00-.4-.4.6.6 0 00-.4.2l-.2.4.4.3.3.2h-1v-.3a.5.5 0 00-.3-.5.7.7 0 01-.3-.5.5.5 0 00-.4-.4c-.2 0-.4 0-.4.2l.2.4c.2.2.3.4.2.6a2.2 2.2 0 00-.1.8c0 .3-.2.4-.3.4l-.3-.6c-.1-.5-.7-1-1-1a.2.2 0 00-.1 0 .3.3 0 000 .4c.2 0 .2.2.2.2l-.2.2a.8.8 0 01-.2 0 1 1 0 00-.3-.1s-.1.1 0 .2a.3.3 0 00.3.3 1 1 0 01.2 0h.2c0 .3-.3.6-.9.8a3.1 3.1 0 01-.6.2h-.1v-.1a.6.6 0 01.2-.4c.3-.2.3-.2 0-.7-.1-.3-.2-.5-.4-.5l-.3.4a2.5 2.5 0 00-.1 1.3v.8a.1.1 0 01-.1 0 1.4 1.4 0 00-.5.1l-.2-.1a3 3 0 010-.5c0-.8 0-.8-.4-.9a1 1 0 00-.1 0 1 1 0 00-.7.3l-.3.1a.8.8 0 01-.4-.1 1.1 1.1 0 00-.6-.3 2.4 2.4 0 00-.9.3l-.6.2.5.4.4.6-.1.1a1.5 1.5 0 01-.6-.4c-.4-.3-.5-.4-.5-1.4a3.2 3.2 0 01.2-1.1.4.4 0 00.2-.4c0-.2-.2-.3-.5-.5a1 1 0 00-.4-.1c-.2 0-.3.3-.3 1.4 0 1 0 1.1-.3 1.1-.2 0-.4-.2-.5-.5v-.4a.3.3 0 00.2-.2 7.5 7.5 0 00-1.7-1.8l-.4.4a.7.7 0 01-.6.4.3.3 0 01-.3-.3c0-.1.1-.4.4-.7s.4-.5.3-.7a.4.4 0 00-.3-.3.3.3 0 00-.3.4 2 2 0 01-1.3 1.3.6.6 0 00-.4.3l-.3.3a.1.1 0 01-.2-.1.5.5 0 010-.2c0-.2 0-.3-.2-.3a.5.5 0 00-.1 0 .9.9 0 01-.2 0 1.3 1.3 0 01-.4 0l-.2-.1.2-.2a.4.4 0 00.2-.3c-.3 0-.9.7-1 1.2 0 .3-.1.4-.3.4a.6.6 0 01-.1 0 .5.5 0 00-.2 0 .6.6 0 00-.4 0 .3.3 0 01-.1.2l-.3-.3-.3-.3v1a2.5 2.5 0 01-.1 1.2.1.1 0 01-.2 0 .8.8 0 010-.7v-.3c-.2 0-.4.1-.8.5a2.3 2.3 0 01-.7.5.3.3 0 00-.4.2.3.3 0 00.1.4c.2.1.2.2.2.3l-.5.2a1.6 1.6 0 01-.9-.3 1.5 1.5 0 00-.7-.4.3.3 0 00-.4.2.3.3 0 000 .3.7.7 0 00.6.3c.2 0 .3 0 .4.2s0 .1-.2.2a1.2 1.2 0 01-.4 0 .8.8 0 01-.7-.4c-.2-.3-.4-.4-.5-.4a1.3 1.3 0 01-.4 0 .3.3 0 00-.1.3.2.2 0 010 .2h-.7a2.8 2.8 0 00-2 1l-.3.1h-.2c-.2 0 0-.2 0-.3l.1-.2a.8.8 0 00.3-.5 1 1 0 01.3-.6l.3-.4a1.4 1.4 0 00-.5.1 1 1 0 01-.3.1c-.1 0-.2 0-.2-.2s-.2-.2-.2-.2a.4.4 0 00-.2.1.5.5 0 00-.2.6.4.4 0 010 .3.8.8 0 01-.7.3.5.5 0 01-.1 0 .2.2 0 00-.1 0 .1.1 0 00-.2 0 1 1 0 01-.3.6l-.3.2c-.1 0-.2 0-.3-.2a.6.6 0 010-.6.8.8 0 01.7-.6c.3 0 .4 0 .4-.2s0-.3-.2-.3a1 1 0 00-.5.1.5.5 0 01-.3.1.8.8 0 01-.3 0l-.4-.3.4-.2a.6.6 0 00.3-.5.8.8 0 00-.5-.6c-.3-.2-.4-.4-.3-.6V45h-.4a.5.5 0 01-.5-.4.7.7 0 00-.4-.4.7.7 0 01-.5-.4l-.1-.3c-.1 0-.2.1-.3.4s-.3.3-.4.3a.3.3 0 01-.2 0 .5.5 0 00-.3-.2 3 3 0 00-.7.1 3.4 3.4 0 01-.8.2l-.2-.1v-.4a.6.6 0 00.1-.5.6.6 0 00-.6-.3c-.3 0-.5 0-.5.2v.4c.2.1.2.2.2.3-.1.2-.5.3-1.1.3a2.5 2.5 0 01-1.2-.3 1.4 1.4 0 00-.7-.2h-.2s-.2.3-.4.3c-.3 0-.5.2-.5.3l-.1.4-.1-.2a1.6 1.6 0 010-.8.4.4 0 00-.1-.3.4.4 0 00-.3 0 2.8 2.8 0 01-.8.4 1.2 1.2 0 00-.7.6l-.3.3a1.3 1.3 0 01-.4-.2 1.2 1.2 0 00-.5-.1.8.8 0 00-.4.1c-.3.2-.4.4-.4.6 0 0 .2.2.5.2l.5.1c0 .2 0 .4-.3.7a1.8 1.8 0 00-.5.6.2.2 0 01-.2.2l-.1-.4a.7.7 0 01.1-.5c.2-.1.2-.2.2-.3 0-.1-.2-.3-.5-.3-.5 0-.6.1-.8.5 0 .3-.2.5-.5.5l-.3.1c0 .1 0 .2.2.3a.4.4 0 010 .5.3.3 0 01-.3.2.9.9 0 01-.4-.3c-.2-.1-.2-.2-.2-.3l.2-.2.3-.3a.2.2 0 00-.2-.2 1.9 1.9 0 00-1.3 1c-.1.3-.3.5-.4.5a1.6 1.6 0 00-.6.5l-.6.6-.1.2a3.9 3.9 0 00-.4.6 1.1 1.1 0 01-.7.4c-.4 0-.5.2-.5.5 0 .2-.1.5-.5.7a1.4 1.4 0 01-.7.3.4.4 0 01-.3-.1 1 1 0 01-.1-.7v-.5a.6.6 0 00-.3 0 .4.4 0 00-.3.6c.1.2 0 .5-.4.9a1.3 1.3 0 01-.6.4h-.1a.4.4 0 00-.4-.3.4.4 0 01-.3-.2 2.4 2.4 0 00-.7-.7l-.5-.4-.6.3a2.2 2.2 0 01-.8.3.3.3 0 01-.1 0 .6.6 0 00-.1 0 .6.6 0 00-.4 0 .5.5 0 01-.3.1 2.2 2.2 0 01-.5 0l-.8-.2-.6-.2a5.2 5.2 0 01-1.4-.5 2.5 2.5 0 00-.7-.3 1.5 1.5 0 01-.7-.2 1.3 1.3 0 00-.6-.3c-.2 0-.3.2-.3.4a.3.3 0 00.3.3.3.3 0 01.3.2c0 .1 0 .3-.2.5l-.3.2a.4.4 0 01-.2-.1 1.3 1.3 0 00-.8-.2 1.4 1.4 0 00-1 .3l-.4.2a.6.6 0 01-.2-.1.6.6 0 01-.4-.4c0-.1-.1-.2-.4-.2h-.3-.2a1.3 1.3 0 01-.9-.3 2 2 0 00-1.2-.5 1.1 1.1 0 00-.8.2 1 1 0 01-.6.3 2.5 2.5 0 01-.7-.2c-.1-.1 0-.2.3-.4a1.4 1.4 0 01.6-.2.3.3 0 01.1 0 .3.3 0 00.1 0 .1.1 0 00.1 0 .8.8 0 00-.3-.7 1 1 0 01-.3-.5s0-.2-.2-.2H81v-.2a1.6 1.6 0 00.3-.7.6.6 0 00-.1-.4.3.3 0 00-.2-.1.7.7 0 00-.4.1c-.2.1-.2.2 0 .6.2.4.2.5-.1.7a.8.8 0 01-.5.2.2.2 0 01-.1 0 .6.6 0 010-.5 1.6 1.6 0 00-.2-.9c-.2-.4-.2-.5 0-.8.2-.3.3-.5.2-.6a.6.6 0 00-.3 0 1 1 0 01-.2 0l.2-.3.4-.5.1-.1-.1-.3a.1.1 0 00-.2 0c0 .2-.1.3-.3.4a.8.8 0 00-.5.5.6.6 0 01-.2.4.5.5 0 01-.2 0 .7.7 0 01-.5-.1.7.7 0 01-.2-.5c0-.2-.1-.4-.3-.4s-.2.2-.2.5c0 .4 0 .6-.3.6a.6.6 0 01-.4-.2c-.1-.2-.2-.2-.3-.2a.2.2 0 00-.1 0 .2.2 0 00-.1.2c0 .1 0 .2.2.3s.3.3.3.4c0 .1-.3.2-.8.2-.3 0-.5.2-.5.3a.3.3 0 01-.3.1.1.1 0 01-.2 0l.1-.4c.1-.3.2-.4.1-.5h-.1c-.1 0-.2 0-.2.2s0 .3-.2.3a1 1 0 01-.2 0 .9.9 0 00-.1 0 .7.7 0 00-.5.1.9.9 0 01-.5.3 1.3 1.3 0 00-.6.2.5.5 0 01-.2.1c-.1 0-.2 0-.5-.3a.9.9 0 00-.5-.4.2.2 0 00-.1.1.5.5 0 000 .4c0 .3 0 .5-.3.6a.7.7 0 00-.5.7.3.3 0 00.3.2l.2.1c0 .1-.1.3-.5.5a1.2 1.2 0 01-.4.2l-.5-.4a.8.8 0 00-.5-.3c-.3 0-.6.2-.9.6-.2.2-.3.3-.5.3a.5.5 0 01-.2-.1.5.5 0 00-.3-.1l-.5.2a1.1 1.1 0 00-.5.6c0 .3-.5 1-.6 1a.6.6 0 010-.5.7.7 0 00-.2-.5l-.2.1c-.1.2-.4.3-.6.3a.5.5 0 01-.2 0 .1.1 0 01-.1-.2.1.1 0 00-.2 0v.3c.2.1.2.2 0 .4a.5.5 0 01-.4.3 1.1 1.1 0 01-.6-.3c-.2-.3-.4-.3-.5-.3v.3a.8.8 0 010 .6.1.1 0 01-.1 0 .4.4 0 01-.2 0l-.2-.1H62a.6.6 0 01-.5.2h-.2c-.3 0-.4 0-.4.3a1.5 1.5 0 01-.4.7l-.4.3zm1.4-2.3a.5.5 0 00-.4.1.1.1 0 000 .2.5.5 0 00.4.1c.3 0 .4 0 .4-.2l-.1-.2a.7.7 0 00-.3 0zm27-.4c-.2 0-.3.1-.3.2a.1.1 0 00.1.1.3.3 0 00.3-.1v-.1a.2.2 0 00-.2 0zm-.8 0a.3.3 0 00-.3.2.2.2 0 00.2.1l.2-.1a.2.2 0 00-.1-.2zm3.7-.2a1 1 0 01.5.1h.1l.3.3a.5.5 0 00.2 0v-.1a.3.3 0 00.3-.2c0-.2 0-.3-.2-.5a1.3 1.3 0 01-.3-.7c0-.3-.1-.4-.2-.4l-.2.2a.4.4 0 01-.3.2.4.4 0 00-.3.2.5.5 0 000 .5.4.4 0 01-.1 0 .6.6 0 00-.3-.2h-.1v.4a.3.3 0 00.3.2.6.6 0 00.2 0 .6.6 0 01.1 0zm3-.6c-.1 0-.3.3-.3.6v.2l.3-.2.2-.4a.2.2 0 00-.2-.1zm7.6-.4a1.3 1.3 0 00-.5.1c-.3.1-.5.3-.5.4a.4.4 0 00.3.4l.3-.3a.6.6 0 01.5-.4h.1v-.1a.3.3 0 00-.2 0zm-36.2 0c-.2 0-.2 0-.3.2a.4.4 0 00.2.4 1 1 0 00.4.1h.2c0-.3-.3-.8-.5-.8zm31.7.4a.2.2 0 00-.1 0v.1h.2a.2.2 0 00-.1 0zm-4.6-.6l-.2.2a.2.2 0 000 .2h.1c.1 0 .2 0 .2-.2v-.2zm-9.8-.6v.2a.3.3 0 000 .2.3.3 0 000-.3v-.1zm-13 0H70s0 .2.2.2.2 0 .2-.1l-.2-.2zm-2-.5a.5.5 0 00-.1 0 .4.4 0 00-.4.3v.2a.1.1 0 00.2 0 .4.4 0 00.4-.3v-.2zm-40 .1s-.2 0-.2.2v.1a.2.2 0 00.2-.1v-.2zm6.4-.2a.2.2 0 00-.2 0 .3.3 0 000 .4.3.3 0 00.3.1.2.2 0 00.3-.2.4.4 0 00-.4-.3zm97-2.3a1 1 0 00-.5.2l-.4.3.4.6c.2.4.4.6.6.6a.5.5 0 00.3-.2.4.4 0 000-.4.3.3 0 00-.2-.2.1.1 0 01-.1 0v-.5-.4zm32.6.9a.2.2 0 00-.2.2.4.4 0 00.1.3.6.6 0 00.4.1h.1c0-.3-.2-.6-.4-.6zm-35-.4c-.2 0-.7.2-.7.4l.3.2a.6.6 0 00.6-.4.2.2 0 000-.2.2.2 0 00-.2 0zm4.2-.5a.8.8 0 01-.6.3h-.2l.1.3a.6.6 0 00.5.3c.2 0 .3-.1.3-.5a1.6 1.6 0 000-.3v-.1zm12-.4V45.2a.2.2 0 000-.2zm1.3-.6a.3.3 0 00-.3.2s0 .3.2.4a.8.8 0 00.5.3.3.3 0 00.3-.3l-.2-.1a.3.3 0 01-.2-.3.2.2 0 00-.3-.2zm-65.7.5a.2.2 0 00-.2.1v.1a.2.2 0 00.1 0h.3l-.2-.2zm80.9 0a.2.2 0 00-.1 0l.1.1h.1a.2.2 0 000-.1zm-38.9-.4l-.2.2a.1.1 0 000 .1.2.2 0 00.3-.1v-.2zm27.5-.1a.2.2 0 00-.1 0l.1.1h.1a.2.2 0 000-.1zm-71.4-.7l-.1.1a.7.7 0 000 .6.3.3 0 00.3.1s.2 0 .2-.2a.3.3 0 000-.3.5.5 0 00-.4-.3zm-70.5 0a.2.2 0 00-.2.2.3.3 0 000 .4.3.3 0 00.2 0c.1 0 .2 0 .2-.2s0-.4-.2-.4zm48.4-.1l-.1.1a.1.1 0 000 .2.2.2 0 00.2-.2v-.1zm122.4-.2a.2.2 0 00-.1 0 .2.2 0 000 .3.4.4 0 00.3.2c.2 0 .3 0 .3-.2a.3.3 0 00-.2-.2.6.6 0 00-.3 0zm-135 0c-.2 0-.3 0-.3.2s.1.1.3.1.2 0 .2-.1l-.2-.2zm98.4-.5l-.2.2a.5.5 0 000 .5.2.2 0 00.1 0 .4.4 0 00.3 0 .2.2 0 000-.3 2 2 0 010-.3h-.2zm-3.7.1c-.2 0-.3.1-.3.3 0 .2.2.3.5.3s.4 0 .5-.2-.2-.2-.4-.3a1.1 1.1 0 00-.3 0zM6 42.7a.5.5 0 00-.4.1.4.4 0 000 .4.3.3 0 00.2.3.7.7 0 00.5-.3l.2-.4-.5-.1zm149.1.3c-.1 0-.3 0-.3.2s.3.1.6.1h.3v-.1a1 1 0 00-.6-.2zm-39.3-.2c-.2 0-.6.2-.6.4h.1a.5.5 0 00.2 0c.3 0 .4-.2.5-.2a.1.1 0 000-.2.1.1 0 00-.2 0zm-4.5 0l-.1.2a.2.2 0 00.2.2l.1-.1-.1-.2a.1.1 0 00-.1 0zm34.8 0V43.2a.2.2 0 000-.2zm-4.2-.3a.2.2 0 00-.2.2.3.3 0 00.2.3.4.4 0 00.1 0 .4.4 0 00.2 0 .2.2 0 000-.3.4.4 0 00-.3-.2zm41.1-.1a.2.2 0 10.3.2.2.2 0 00-.3-.2zM26 42.5a.3.3 0 00-.3.2.2.2 0 00.1.1l.3-.1a.2.2 0 00-.1-.2zm160-.5a.2.2 0 00-.1 0 .4.4 0 00-.3.3.1.1 0 000 .2h.1a.5.5 0 00.3-.3.1.1 0 000-.1zm-28.4.2v.2c0 .2 0 0 0 0a.2.2 0 000-.2zM50 41.4c-.1 0-.2.1-.2.3 0 .2.1.3.3.3a.2.2 0 00.3-.2.4.4 0 00-.3-.4.5.5 0 00-.1 0zm-2.1.3a.2.2 0 00-.1 0v.1h.2a.2.2 0 00-.1 0zm34.5-.5a.5.5 0 00-.3.3.1.1 0 000 .2.2.2 0 00.1 0 .5.5 0 00.3-.3.1.1 0 000-.1zM55 40.6a.6.6 0 00-.5.3.2.2 0 000 .2.4.4 0 00.3.1.8.8 0 00.4-.1.3.3 0 00.1-.3.3.3 0 00-.3-.2zm-2-.3a1 1 0 00-.2 0l-.5.3v.2a.5.5 0 00.5.3s.2 0 .2-.2a1.3 1.3 0 010-.4c.1 0 .1-.1 0-.2zm-28 .4a.2.2 0 01.1 0 .2.2 0 00.2.2l.2-.6c0-.2-.1-.3-.3-.3a1 1 0 00-.6.2.4.4 0 00-.1.4.2.2 0 00.2.1.4.4 0 00.1 0 .3.3 0 01.1 0zM5 40l-.2.1.1.3a.3.3 0 00.2 0c.1 0 .2 0 .2-.2a.2.2 0 00-.2-.2zm18.5-.2a.2.2 0 00-.2.3v.2l.3-.2.1-.2h-.2zm5.3-.4l-.2.1c0 .1 0 .2.2.2s.2 0 .2-.2 0-.1-.2-.1zM6.2 35c-.1 0-.2.1-.2.3a.2.2 0 000 .2.2.2 0 00.1 0 .3.3 0 00.2-.3.2.2 0 00-.1-.2zm-.5-1.5a.5.5 0 00-.4.2l-.6.5c-.3.2-.4.4-.3.6l.2.2c.2 0 .3-.2.4-.5.1-.3.3-.4.6-.4.2 0 .3-.1.3-.3a.3.3 0 000-.2.3.3 0 00-.2 0zm1.4.2l-.2.3a.2.2 0 000 .2.2.2 0 00.2 0 .2.2 0 00.2 0 .2.2 0 000-.2l-.1-.3zm2.8-1.4l-.1.2c0 .2 0 0 0 0h.1a.2.2 0 000-.1zm-1.4-.3a.3.3 0 00-.1 0 .2.2 0 00-.1.2.2.2 0 000 .1.1.1 0 000 .1l.2-.1V32zm-.8-1.5c-.3 0-.4 0-.4 1.1 0 .5 0 .7.2.7a.2.2 0 00.1-.2.8.8 0 01.2-.6c.2-.4.3-.7.2-.8a.3.3 0 00-.3-.2zm1.2.5a.4.4 0 000 .4.4.4 0 00.4.3c.1 0 .2 0 .2-.2 0-.1-.4-.5-.6-.5zm-1.6-2a.2.2 0 00-.2.2.3.3 0 00.3.2.1.1 0 00.1-.1c0-.1 0-.2-.2-.2zm.6-1.2V28.2a.2.2 0 000-.2zm1.4-.6a.3.3 0 00-.1 0 .2.2 0 00-.1.2.2.2 0 000 .1.1.1 0 00.1 0 .2.2 0 00.2 0v-.2a.1.1 0 000-.1zM6 25.7a.2.2 0 10.2.2.2.2 0 00-.2-.2zm-.3-.7a.2.2 0 00-.1 0v.1h.2zm.3-2.2l-.3.1a.1.1 0 00.2.2.3.3 0 00.2-.2.2.2 0 00-.1-.1zm2-2.9a.5.5 0 00-.4.5.3.3 0 00.3.3.5.5 0 00.5-.3.4.4 0 00-.1-.4.3.3 0 00-.2-.1zm125.5-.2a.2.2 0 00-.2 0v.1h.2c.2 0 0 0 0 0zM10.5 18l-.2.2c0 .2-.2.3-.4.3s-.2 0-.2.2 0 .2.2.2h.2c0 .1 0 .3-.3.6l-.3.5c.3 0 .8-.7.8-1.2l.2-.4a.2.2 0 00.1-.1.3.3 0 000-.2l-.1-.1zm-2.3.4c-.2 0-.3.1-.3.4 0 .3.1.3.2.3s.2 0 .3-.4a.4.4 0 000-.3.2.2 0 00-.2 0zm4.8 0a.4.4 0 00-.1 0h-.1l.2.1h.2a.2.2 0 00-.2-.1zm26.5-.8l-.3.1c0 .1.1.2.3.2s.2 0 .2-.2-.1-.1-.2-.1zm98-.5a.2.2 0 10.2.2.2.2 0 00-.2-.2zm-126-.5l-.2.1a.9.9 0 00.1.8.4.4 0 00.3 0l.2-.1c0-.3-.3-.8-.4-.8zm172.8.5c-.1 0-.2.1-.2.3l.1.1a.3.3 0 00.2-.3.1.1 0 00-.1-.1zm-43.2-.5c-.2 0-.6.2-.6.4a.4.4 0 000 .2c.3 0 .8-.3.8-.4l-.2-.2zM10 16.4c-.2 0-.4 0-.5.2l.2.2a.8.8 0 00.4.1c.2 0 .3 0 .3-.3a.2.2 0 000-.1l-.4-.1zm126.4-.4c-.1 0-.2 0-.2.2l.2.3a.3.3 0 00.3-.3.2.2 0 00-.2-.2.3.3 0 00-.1 0zm-26.9-.3c-.2 0-.4 0-.5.2l.3.3a1.1 1.1 0 00.4 0c.1 0 .2 0 .2-.3 0 0-.1-.2-.4-.2zm32.4.2a.2.2 0 00-.2.1v.2c.1 0 .2 0 .2-.2v-.1zm-103.6-.3a.4.4 0 00-.3.2.3.3 0 000 .3.2.2 0 00.2 0 .7.7 0 00.3 0 .2.2 0 00.1-.3.3.3 0 00-.3-.2zm130.1-.1a1.1 1.1 0 00-.2 0c-.2 0-.3.1-.3.2l.3.3a2.5 2.5 0 00.4.2 1.2 1.2 0 000-.4l-.1-.3zm-153.8-.3a.6.6 0 000 .4.4.4 0 00.3.3.2.2 0 00.2-.3.6.6 0 00-.4-.4zm157 .4v.2a.2.2 0 000-.2zm-8.1-.5a.1.1 0 000 .1l.1.2v-.2a.2.2 0 00-.1-.1zm-4.7-.8c-.2 0-.6.5-.6.8 0 .2 0 .3.3.3.4 0 .5-.2.5-.6a.7.7 0 000-.5.1.1 0 00-.2 0zm-20.7.5a.5.5 0 00-.3.1.1.1 0 000 .1.2.2 0 00.1 0 .4.4 0 00.3 0v-.2a.2.2 0 00-.1 0zm-4-.5c-.2 0-.6.3-.6.5l.2.1a.5.5 0 00.4-.3.2.2 0 000-.3zm-116.9 0a.4.4 0 00-.3.2.2.2 0 000 .2.4.4 0 00.3.2.3.3 0 00.2-.2.3.3 0 000-.3.2.2 0 00-.2 0zm167.3.1a.3.3 0 00-.2.1.3.3 0 00.5 0 .3.3 0 00-.3 0zm-78-.4a.5.5 0 00-.3.1l-.1.2.1.2a.5.5 0 00.4.2c.1 0 .2-.1.2-.3a.3.3 0 000-.2.4.4 0 00-.3-.2zm-70.6 0a.2.2 0 00-.2.2.4.4 0 00.2.3.6.6 0 00.3.2.3.3 0 00.2-.1.7.7 0 00.2-.7.1.1 0 00-.2-.1.2.2 0 00-.1.2H36a.4.4 0 00-.2 0zm105.1-.4c-.2 0-.3 0-.4.2v.5l.3.3.5-.3c.2-.2.2-.4.2-.5s-.2-.2-.6-.2zm12.3.4a.3.3 0 00-.2 0 .4.4 0 000 .4.4.4 0 00.4.2.5.5 0 00.5-.3 1 1 0 00-.7-.4zm-112-.4c-.1 0-.2.1-.2.3s0 .2.1.2l.2-.2c0-.2 0-.3-.2-.3zM18 14v.1h.2V14a.2.2 0 00-.2 0zm21.6-.5a.4.4 0 00-.4.4.2.2 0 00.3.2.3.3 0 00.3-.2.3.3 0 000-.3.2.2 0 00-.2 0zm62 0h-.1v.2a.4.4 0 00.4 0 .3.3 0 00.3 0v-.1a.4.4 0 00-.3-.2 1 1 0 00-.2 0zm-1.7-.7a.3.3 0 00-.2 0 .5.5 0 00-.1.5.5.5 0 000 .4.3.3 0 00.3 0s.2 0 .2-.3a.5.5 0 000-.4.3.3 0 00-.2-.2zm44.5.5V13.6a.2.2 0 000-.2zm27.8-.6a.4.4 0 00-.3.1.5.5 0 000 .4c0 .2 0 .2.2.2 0 0 .2-.1.3-.4a.4.4 0 000-.3.2.2 0 00-.2 0zm-28.6.1c-.2 0-.2 0-.2.2 0 0 0 .2.2.3a.5.5 0 00.3 0 .2.2 0 00.2 0l-.1-.3a.9.9 0 00-.4-.2zm-39.6.4v.1h.2v-.1a.2.2 0 00-.2 0zM41.7 13a.2.2 0 00-.1.1.2.2 0 00.1.2.2.2 0 00.2-.2.2.2 0 00-.2-.1zm141-.2a.2.2 0 00-.2.1.2.2 0 000 .3.2.2 0 00.2 0 .3.3 0 00.2-.2c0-.1 0-.2-.2-.2zm-52.5 0a.2.2 0 00-.2 0 .2.2 0 000 .2.2.2 0 00.2 0 .2.2 0 00.1 0 .2.2 0 000-.2zm15-.6c-.2 0-.4.2-.5.4v.3a.7.7 0 00.4 0l.8-.1a.7.7 0 00-.7-.6zm-42.3.2c-.1 0-.2 0-.2.2 0 .1.1.2.4.2l.4-.1c0-.2-.2-.3-.5-.3zm-2.1.1a.2.2 0 00-.1 0v.1h.2a.2.2 0 00-.1 0zm43 0a.4.4 0 00-.2 0l-.1.1c0 .1 0 0 .2 0h.2a.2.2 0 00-.2 0zM20.2 12H20a.6.6 0 00.1.4.3.3 0 00.2.1.2.2 0 00.2-.1.2.2 0 000-.3.5.5 0 00-.3-.1zm158.5-.7a.3.3 0 00-.2.3 2 2 0 01-.1.6v.2a.2.2 0 00.2 0 .3.3 0 00.2-.3 2 2 0 01.1-.5v-.2a.2.2 0 00-.1 0zM43.6 12a.3.3 0 00-.3.2.1.1 0 000 .2.2.2 0 00.2 0 .3.3 0 00.3-.2.2.2 0 00-.2-.2zm131.6 0a.2.2 0 00-.1 0 .2.2 0 000 .3.3.3 0 00.3.1.3.3 0 00.2-.1.1.1 0 000-.1.3.3 0 00-.1-.2.6.6 0 00-.2 0zm-132.7 0a.3.3 0 00-.3.2l.1.2a.2.2 0 00.1 0 .3.3 0 00.2-.3.2.2 0 00-.1-.1zm138.7-.7a.4.4 0 00-.2.1.6.6 0 000 .5.4.4 0 00.3.4c.2 0 .3-.1.3-.4a.5.5 0 00-.4-.6zm-81.3 0l-.3.3v.3s.2 0 .3-.2c.2-.1.2-.2.2-.3h-.2zm29.9-.4l-.3.3c-.2.4-.2.5 0 .6a.5.5 0 00.2 0c.2 0 .3 0 .3-.4a.9.9 0 000-.4h-.2zm46.7.3l-.1.1a1 1 0 00-.2.4l.2.1.1-.4v-.2zm-45.2.2a.2.2 0 00-.2.1.3.3 0 00.3.3.2.2 0 00.1 0 .1.1 0 000-.2.3.3 0 00-.2-.2zM77 11a.2.2 0 00-.2.2.3.3 0 00.2.3.4.4 0 00.3 0 .2.2 0 000-.3.4.4 0 00-.3-.2zm-34.5-.2a.4.4 0 00-.3.2.2.2 0 000 .3l.2.1c.1 0 .2 0 .3-.2l.1-.2-.1-.1a.4.4 0 00-.2 0zm138.1 0a.5.5 0 00-.1 0 .5.5 0 00-.4.3.1.1 0 000 .1.1.1 0 00.1 0 .5.5 0 00.2 0 .5.5 0 00.3-.2.1.1 0 000-.1.1.1 0 00-.1 0zM45 10.6a.2.2 0 00-.2 0 .2.2 0 000 .3.3.3 0 00.3.2.3.3 0 00.2-.2.1.1 0 000-.1.3.3 0 00-.1-.2.6.6 0 00-.2 0zm85.7-.1a.2.2 0 00-.2.1l.1.2.3.2a.4.4 0 000-.3.2.2 0 00-.2-.2zM31.5 10v.1a.3.3 0 00-.1.4l.1.1.1-.3V10zm94.6-.8a.2.2 0 00-.2 0 1 1 0 000 .9l.4.4c.2 0 .3-.1.5-.4.1-.3.1-.3-.2-.6a1.7 1.7 0 00-.5-.3zm-45.3.9v.1a.3.3 0 000 .2.3.3 0 000-.3zm47.2-.4h-.1a.3.3 0 00-.1.4c0 .2.1.2.2.2v-.3-.3zM97 10a.2.2 0 00-.2.2v.2l.2-.2a.1.1 0 000-.1zm-18 0a.2.2 0 00-.2.2.3.3 0 00.4 0 .2.2 0 00-.2-.2zm-50.9-.7l-.1.2a.8.8 0 000 .6.1.1 0 00.1 0 .4.4 0 00.3-.1l.2-.3-.2-.2-.3-.2zm48 0l-.1.1a.7.7 0 00-.3.4.2.2 0 00.3.2.3.3 0 00.3-.1.6.6 0 000-.5l-.1-.1zm-28.8-.3l-.1.1a3 3 0 01-.1.6v.3l.1-.1a.7.7 0 00.3-.6.4.4 0 00-.2-.3zM68 8.3l-.2.1c0 .2 0 .4.4.8l.6.4.1-.2c0-.1 0-.3-.2-.3 0 0-.2-.1-.3-.4s-.2-.4-.4-.4zm28.7.4l-.2.4.1.3c.2 0 .2-.3.2-.4l-.1-.3zm-46.4.2a.3.3 0 00-.3.2.1.1 0 000 .1.2.2 0 00.2 0 .3.3 0 00.2-.2.2.2 0 000-.1.2.2 0 00-.1 0zm27-.5c-.1 0-.2.2-.2.5s0 .4.2.4a.5.5 0 00.4-.4.4.4 0 00-.1-.4.5.5 0 00-.3-.1zm-31.7 0a.3.3 0 00-.2.3.2.2 0 000 .2.3.3 0 00.2 0c.1 0 .2 0 .2-.2s0-.2-.2-.2zm33.5-.3a.7.7 0 00-.2 0l-.4.4a.3.3 0 00.1.2.3.3 0 00.3.1.6.6 0 00.4-.3.3.3 0 000-.3l-.2-.1zm4.5-.2l-.2.2a.4.4 0 00-.2.4.2.2 0 00.2 0 .6.6 0 00.3 0l.2-.2-.1-.2-.2-.2zm-37-.1a.3.3 0 00-.3 0 .4.4 0 000 .5l.3.2a.5.5 0 00.3-.2l.2-.3-.3-.2a.7.7 0 00-.2 0zm50.2-.1l-.1.4v.3h.1l.2-.4c0-.2 0-.3-.2-.3zm-46.4-.2l-.1.5v.3l.2-.2c.1-.2.2-.4.1-.5a.2.2 0 00-.2 0zm-1.8 0v.2a.2.2 0 000 .2l.2-.1-.1-.2zm47-.6a.5.5 0 00-.4.4c0 .1 0 .2.2.2l.4-.4V7a.2.2 0 00-.1-.1zm-28.5-.5a.4.4 0 00-.4.2.2.2 0 000 .3.4.4 0 00.4.1c.2 0 .4 0 .4-.2a.4.4 0 00-.3-.3.4.4 0 00-.1 0zm16.7-.2l.3.1a.4.4 0 000 .4l.4.3.1-.2a2.2 2.2 0 00-.2-.7.8.8 0 00-.7-.5.8.8 0 00-.6.3.6.6 0 00-.1.5.1.1 0 000 .1.3.3 0 00.2 0 1 1 0 01.6-.3zm2.7.5c-.2 0-.3.1-.3.2h.2l.3-.1c0-.1-.1 0-.2 0zm6.8-.5a.3.3 0 00-.3.3.2.2 0 000 .2.5.5 0 00.5 0 .2.2 0 000-.2.3.3 0 00-.2-.3zM66 6.2a.2.2 0 00-.2.2v.2c.1 0 .2 0 .2-.2a.1.1 0 000-.1zm25.4-.4a.6.6 0 00.2.4 1 1 0 00.4.2l.1-.1-.3-.3a1 1 0 00-.4-.2zm-40-.4c-.1 0-.2.1-.2.3l.1.2a.3.3 0 00.2-.3.1.1 0 00-.2-.2zM93.2 5c-.2 0-.3.1-.4.3a.4.4 0 000 .3.3.3 0 00.2.1c.2 0 .3-.4.3-.6l-.1-.1zm-27.5.3a.2.2 0 00-.1 0v.1h.2a.2.2 0 00-.1-.1zm24.7-.5l-.2.1-.1.2.1.2a.5.5 0 00.3 0V5l-.1-.2zm-3.2 0a.5.5 0 00-.4.2.2.2 0 000 .2.4.4 0 00.3 0c.2 0 .4 0 .4-.2a.3.3 0 00-.3-.2zM52 3.9a.2.2 0 00-.1 0c-.2.1-.3.2-.3.4s.2.2.4.2a1 1 0 01.7.3.7.7 0 00.4.3c.1 0 .2-.1.2-.3a.2.2 0 000-.1 2.5 2.5 0 00-1.3-.8zm10.4.6a.2.2 0 00-.1 0v.1l.1.2s.2 0 .2-.2a.2.2 0 00-.2-.1zm1.7-1a.2.2 0 00-.2.1 1 1 0 000 .8c0 .3.1.4.2.4s.2 0 .3-.2c.2-.2.2-.4 0-.7 0-.2-.2-.4-.3-.4zm-9.8.7v.4l.2-.1a.3.3 0 000-.3.1.1 0 00-.2 0zm3.9-2.7c-.2 0-.2.2 0 1.4 0 .4.2.6.3.6s.3-.2.3-.5a2.3 2.3 0 00-.5-1.4.3.3 0 00-.1-.1zm-2.5.2c-.2 0-.3 0-.6.4l-.5.5.5-.1c.4-.1.7-.3.8-.5a.2.2 0 000-.3.2.2 0 00-.2 0zm40.6 51a3.3 3.3 0 01-1-.4 1.4 1.4 0 00-.6-.1 1 1 0 00-.4 0 1.2 1.2 0 01-.4.1.2.2 0 01-.2 0 .2.2 0 010-.2c0-.2.5-.3 1.2-.3.9 0 1.2 0 1.3-.2a.4.4 0 01.4-.2.9.9 0 01.7.3v.2a.1.1 0 01-.1 0 .9.9 0 01-.4 0 .9.9 0 00-.4-.2.2.2 0 00-.2 0l.1.4a1.4 1.4 0 01.2.4l-.2.1zm-7.4-.7a.8.8 0 01-.3-.1.3.3 0 01-.2-.3.4.4 0 01.1-.3.1.1 0 01.1 0l.4.3v.3a.2.2 0 01-.1 0zm-23.9 0a.1.1 0 01-.1-.2.3.3 0 01.1-.2.3.3 0 01.1 0h.2a.3.3 0 01-.3.3zm17.8-.3a1.4 1.4 0 01-.7-.4c-.4-.3-.5-.5-.5-.6l.4-.2c.3 0 .9.7.9 1l-.1.2zm-17 0v-.2a.2.2 0 01.2 0v.1h-.1zm18.1 0l-.3-.4a.7.7 0 01.1-.6.5.5 0 01.4-.2.3.3 0 01.2.2.7.7 0 010 .6c-.1.2-.2.4-.4.4zm-3.5-.1c-.1 0-.2-.2-.2-.5 0-.2 0-.3.2-.3a1.1 1.1 0 01.2 0c.2 0 .4.2.4.3h-.2a.3.3 0 00-.3.3l-.1.2zM26.4 51a.2.2 0 01-.1-.1.2.2 0 010-.2.2.2 0 01.1-.1.2.2 0 01.1 0 .2.2 0 010 .2.2.2 0 010 .1.2.2 0 01-.1 0zm28-.1h-.1v-.2a.2.2 0 01.2 0v.1h-.1zm49.1-.7h-.1V50a.2.2 0 01.2 0l-.1.1zM24.1 50a.3.3 0 01-.3-.2.1.1 0 010-.2.2.2 0 01.2 0 .3.3 0 01.2.3.1.1 0 01-.1 0zm47.1-.2a.2.2 0 01-.1-.1.2.2 0 01.1-.2.2.2 0 01.2.2.2.2 0 01-.2.1zM34 49.6h-.4l.1-.1a1.8 1.8 0 00.4-.3.2.2 0 01.2 0v.1c0 .2 0 .3-.3.3zm34.7 0v-.2-.1a.2.2 0 010 .2zm-44.2-.3a.2.2 0 01-.3-.3.5.5 0 01.4-.5.9.9 0 01.2 0c.2 0 .3 0 .3.2s0 .1-.2.1a.4.4 0 00-.3.2v.1a.2.2 0 01-.1.2zm105-.2l-.3-.1.2-.4a.4.4 0 01.2 0c.1 0 .2 0 .2.3 0 .1-.1.2-.3.2zm-48.6 0a.2.2 0 01-.1 0 .1.1 0 010-.2.3.3 0 01.2-.1.2.2 0 01.2.1c0 .1-.1.2-.3.2zm24 0a.2.2 0 01-.2-.1.2.2 0 010-.3.2.2 0 01.2 0h.2a.3.3 0 01-.3.3zm-51 0a.2.2 0 01-.2-.2.2.2 0 010-.2.3.3 0 01.2 0 .2.2 0 01.1.2.1.1 0 010 .1.2.2 0 01-.1 0zm68.5-.2a.7.7 0 01-.4-.1l-.1-.1.1-.2a1.1 1.1 0 01.4 0c.1 0 .2 0 .2.2a.2.2 0 01-.2.2zm-43 0l-.3-.1-.1-.2h.5v.2l-.1.1zm50.3-.6h-.2v-.1a.2.2 0 01.3 0h-.1zm-106.4 0H23v-.1a.2.2 0 01.2 0zM122 48l-.2-.1a.1.1 0 010-.2.2.2 0 01.2.2v.1zm40.9 0h-.2v-.3c0-.1.1-.2.3-.2l.4.2c0 .1 0 .2-.2.2a1 1 0 01-.3.1zm-109.3 0l-.1-.1v-.2h.1a.2.2 0 010 .3zm119.5-.2s-.2-.1-.2-.3a.3.3 0 01.2 0v.3zm-29.2-.1a2 2 0 01-.7-.2l-.5-.4.9-.1a16 16 0 01.8 0v.4c-.2.2-.3.3-.5.3zm7.5-.2v-.1a.2.2 0 01.2-.2.1.1 0 010 .2l-.2.1zm-77.5 0h-.2a.2.2 0 01.3 0H74zm-49.3 0h-.3l.4-.3a1.3 1.3 0 01.5-.4l-.1.4a.6.6 0 01-.5.3zm15.6 0l-.2-.2-.2-.4.2-.1a1 1 0 01.3 0 .6.6 0 00.1 0c.2 0 .4 0 .6-.3l.3-.3a2.6 2.6 0 01-.5.8c-.3.3-.4.5-.6.5zm107-.1c-.3 0-.8-.2-.8-.4l.7-.3h.4c.4 0 .6 0 .6.2v.2a1 1 0 01-.8.3zM77 47.3c-.2 0-.4-.2-.5-.4v-.1a.2.2 0 01.2-.1.5.5 0 01.4.4l-.1.2zm-22.5-.1a.2.2 0 01-.2-.2l.1-.1a.1.1 0 01.1 0l.2.2h-.2zm-45 0a.1.1 0 010-.2l.2-.2v.2a.2.2 0 01-.1.2zm151.4 0l-.3-.1c0-.1 0 0 .1 0a.7.7 0 01.2 0 .8.8 0 01.2 0h-.2zM159 47a.2.2 0 01-.2-.1.1.1 0 010-.1.3.3 0 01.2-.2.7.7 0 01.2 0 .1.1 0 01.1 0v.2a.3.3 0 01-.3.2zm-37.7-.4v-.2a.4.4 0 01.3-.2.2.2 0 01.2.1v.1l-.2.2a1.8 1.8 0 01-.3 0zm-110.4-.2h-.1v-.1a.2.2 0 01.1 0 .2.2 0 01.1 0zm125.3-.2a.8.8 0 01.1-.5l.3-.4a.8.8 0 010 .6c-.1.2-.3.3-.4.3zm5.5 0s-.2 0-.2-.2a.4.4 0 010-.4.8.8 0 01.7-.3.4.4 0 01.3.3.5.5 0 01-.3.4 1 1 0 01-.5.2zm-129 0V46c0-.2 0 0 0 0a.2.2 0 010 .2zm163.9-.2a.2.2 0 01-.2 0v-.2a2.3 2.3 0 00.1-.3.3.3 0 01.2 0 .4.4 0 01.1.3.2.2 0 01-.2.2zm-58.4-.3l-.3-.2v-.2h.1a.2.2 0 01.3.2l-.1.2zm2.8-.3c-.2 0-.3-.2-.3-.5l.1-.3c.1 0 .3.2.3.4a.4.4 0 010 .4zm-106.2 0a.2.2 0 01-.1 0 .1.1 0 010-.2.3.3 0 01.2-.1.2.2 0 01.2.1c0 .1-.1.2-.3.2zm97.5 0a.8.8 0 01-.3-.1l-.2-.2.4-.2c.2 0 .3.1.3.3 0 .1 0 .2-.2.2zM54 44.9a.8.8 0 01-.3 0 .3.3 0 01-.2-.4.3.3 0 01.4-.2.3.3 0 01.3.3c0 .2 0 .3-.2.3zm-6 0c-.2 0-.3-.1-.4-.4-.2-.4-.2-.6-.1-.7a2.8 2.8 0 011 .8 1.7 1.7 0 01-.4.2.7.7 0 01-.2 0zm135.8-.1c-.2 0-.3-.1-.3-.2l.3-.3a.4.4 0 01.1-.1v.2l-.1.4zM22 44.8a.1.1 0 010-.2.5.5 0 01.2-.3h.1a.1.1 0 010 .2.5.5 0 01-.2.2.2.2 0 01-.1 0zm169.8 0a48.3 48.3 0 00-.2-7.9l-.3.3-.2-.2a2.4 2.4 0 010-.6c0-.5 0-.7.2-.7a1 1 0 01.1 0l.4.1v9zM4.2 42A.2.2 0 014 42a.2.2 0 01.2-.2.2.2 0 01.1.2.2.2 0 01-.1.1zm-1.6-.5a.6.6 0 01-.2-.6l.2-.2s.2.1.2.3a.4.4 0 010 .4.2.2 0 01-.2 0zm-1.5-.3a.1.1 0 010-.1l.1-.2v.2a.2.2 0 010 .1zm-.6-1.8a.8.8 0 01-.3 0A.3.3 0 010 39a.3.3 0 01.3-.3.3.3 0 01.3.3l-.1.3zm189-7.8l-.4-.4-.3-.5h.4a.5.5 0 01.4.2.6.6 0 01.1.5c0 .1 0 .2-.2.2zm-7.4-4c-.2 0-.3 0-.3-.2a.2.2 0 01.2-.1.3.3 0 01.2.1.1.1 0 010 .1.2.2 0 01-.1 0zM2 27.3c-.1 0-.2 0-.3-.2a.1.1 0 010-.1H2a.2.2 0 01.2.1v.2zM1 26H1a.2.2 0 01.1-.1.2.2 0 01.1 0v.1zm181-.8l-.2-.6c0-.7 0-1.3.4-1.5a.5.5 0 01.3-.1c.2.2.2.6.1 1.7l-.1.4a1.4 1.4 0 00-.4 0zm-180-.6v-.2c0-.2 0 0 0 0h.1a.2.2 0 010 .2zm0-2a.1.1 0 010-.1.5.5 0 01.3-.3h.1a.1.1 0 010 .2.5.5 0 01-.2.2.2.2 0 01-.1 0zm-.8-1.2a.3.3 0 01-.2-.2 1 1 0 010-.7.1.1 0 01.2 0h.1a1 1 0 01.1.8.3.3 0 01-.2 0zm1.6-.5a.3.3 0 01-.3 0 .2.2 0 010-.3.3.3 0 01.3-.3.3.3 0 01.3.3.2.2 0 010 .2.3.3 0 01-.3.1zm183.6-3.4l-.3-.2V17a.4.4 0 01.4.4l-.1.2zm.7-.8a1 1 0 01-.3-.2v-.2h.1a.3.3 0 01.3.2l-.1.2zm-20.8-2.3c-.1 0-.2 0-.2-.2a.3.3 0 010-.3.3.3 0 01.2 0s.2 0 .2.2a.4.4 0 01-.2.3zm-.5-.9a.3.3 0 01-.2-.1.1.1 0 010-.2.4.4 0 01.3.2v.1zm-51.3-.1a.2.2 0 01-.1-.2.3.3 0 01.2-.3c.1 0 .2 0 .2.2a.3.3 0 01-.3.3zm72.6 0a.3.3 0 01-.2-.2.3.3 0 010-.3.2.2 0 01.2-.1.5.5 0 01.2.3c0 .2 0 .3-.2.3zm-81.8-.4a.3.3 0 01-.2 0 .3.3 0 010-.4.4.4 0 01.2-.3.7.7 0 01.2 0 .2.2 0 01.2 0 .4.4 0 010 .4l-.4.3zm44.7 0c-.2 0-.3-.1-.5-.3-.1-.3-.2-.5-.1-.6a1.1 1.1 0 01.7.4.3.3 0 01.1.2c0 .2-.1.3-.2.3zm12-.2l-.2-.2a1 1 0 01-.3-.5.2.2 0 01.2-.2.6.6 0 01.4.3.5.5 0 010 .5v.1zm-55.3-.1l-.8-.6c-.4-.4-.5-.7-.5-.8l.3-.2c.1 0 .3.2.3.4a.6.6 0 00.7.5 1.5 1.5 0 00.3 0c.3 0 .4-.2.4-.4l.1-.3c.1 0 .2 0 .3.2.2.3.1.4-.2.7a.9.9 0 01-.5.3.2.2 0 00-.3 0l-.1.2zm41.2-.6l-.1-.2a.3.3 0 010-.2.1.1 0 010-.1.2.2 0 01.1 0 .3.3 0 010 .3v.2zm38.2-.2v-.2-.2a.1.1 0 01.1 0 .2.2 0 010 .3v.1zm-66.9 0a.1.1 0 010-.1s0-.2.2-.3a.3.3 0 01.1 0 .1.1 0 010 .1.4.4 0 01-.3.3zm16.2-.1a.6.6 0 01-.4-.4 2 2 0 00-.4-.5l-.2-.2.2-.2a.6.6 0 01.3-.2 1.8 1.8 0 00.1.2l.2.2a2 2 0 01.4.7v.3a.2.2 0 01-.2 0zm49.1-.4l-.2-.3V11a.3.3 0 01.2 0c0 .2.1.3 0 .4zm-80.4-.6l-.1-.2v-.1a.2.2 0 01.2.1v.2zm-67.5-.5a.3.3 0 01-.1-.2V10h.1a.3.3 0 010 .4zm96-.1a.6.6 0 01-.5-.3v-.5l.2-.1s.2 0 .3.2l.2.5a.3.3 0 01-.2.2zm45.2-.4l-.3-.2v-.5a.6.6 0 01.5-.2c.2 0 .4.1.4.3a.7.7 0 01-.3.4.6.6 0 01-.3.2zm1.8-.8a.3.3 0 01-.2-.1.1.1 0 010-.1.3.3 0 01.1-.2.6.6 0 01.3 0 .2.2 0 01.1 0 .2.2 0 010 .3.3.3 0 01-.3.1zM133.8 9a.2.2 0 01-.1-.2.1.1 0 01.1 0l.2.1h-.2zM28.5 8.3a.2.2 0 01-.2 0 .3.3 0 010-.3.4.4 0 01.4-.4.2.2 0 01.3 0l-.1.5a.6.6 0 01-.4.2zm1.9-.3a.3.3 0 01-.3 0 .2.2 0 010-.3.4.4 0 01.3-.2.2.2 0 01.3.3.3.3 0 01-.3.2zm40.8-.5l-.2-.2v-.5c.1 0 .2 0 .3.2a.5.5 0 010 .4h-.1zm2.8 0l-.4-.4-.2-.3c.2 0 .3 0 .5.2a.5.5 0 01.1.4zm-3.5-.8a.3.3 0 01-.3 0v-.3a.4.4 0 01.2 0l.2.2a.1.1 0 01-.1.1zm21-2.4c-.2 0-.2 0-.4-.3s-.2-.4 0-.6a.4.4 0 01.2-.1.7.7 0 01.3 0 .6.6 0 01.3.6.4.4 0 01-.2.3.8.8 0 01-.3.1zM64 2l-.2-.2v-.3a.2.2 0 01.1 0c.1 0 .3 0 .3.3 0 .1 0 .2-.2.2zm-7.5-1c-.1 0-.2 0-.2-.2a.5.5 0 010-.4.3.3 0 01.2-.1.8.8 0 01.5.1l.1.2-.2.2-.4.2zM59 .1h-.2a.2.2 0 01.2-.1v.1z" fill="#9adcf2"/></svg>