<svg id="Modalità_Isolamento" data-name="Modalità Isolamento" xmlns="http://www.w3.org/2000/svg" viewBox="0 0 295.35 75.91"><defs><style>.cls-1{fill:#3c3c3b;}</style></defs><title>btn</title><path class="cls-1" d="M339.93,644.21c-.92-8.31-2-16.44-2.11-24.82-.11-8.12.25-6.24.56-14.35.6-15.74,1.22-12.36-3.62-27.58a1.77,1.77,0,0,0-1.17-1.22,2,2,0,0,0-1.71-1.26c-7.12-1-14.63-.4-21.8-.43s-14.53,0-21.8,0c-14.2.07-138.41.27-152.6.6-28.68.65-57.58,1.11-86.14,4a1.77,1.77,0,0,0-.58.16,1.55,1.55,0,0,0-2.42.78c-4,15-.71,12.32.46,27.55.66,8.61,1.31,7.21,2,15.82.61,7.89.59,16.2,2.28,24a1.55,1.55,0,0,0,1.47,1.87c29,1.8,58.34.81,87.39.32s168.27-1.19,197.36-2.67a2,2,0,0,0,1.91-1.58A1.09,1.09,0,0,0,339.93,644.21Zm-285.28,1.9c.35-7.81-.91-15.88-1.5-23.65-.64-8.27-1.28-6.54-1.91-14.82-1.17-15.15-2.18-10-1.76-25.14h.06c28.72-.45,57.42-2.35,86.14-3,14.19-.32,138.4-.52,152.6-.59q10.91-.06,21.8,0c7,0,14.21.66,21.14,0,3.68,16.25,3.61,12.28,3,28.86-.56,14.65-1.89,20.8,2.47,35.08-28.85,1-167.69,2-196.55,2.43C111.65,645.71,83.09,645,54.65,646.11Z" transform="translate(-44.59 -574.42)"/></svg>