<svg xmlns="http://www.w3.org/2000/svg" width="132.2" height="163.626" viewBox="0 0 132.2 163.626"><g transform="translate(-47.794 -197.004)"><path d="M154.423,308.528s-2.144,11.792-4.31,23.4c-.249,1.358-.508,2.705-.757,4.031-.238,1.275-.476,2.528-.7,3.751-.384,2.021-.757,3.948-1.1,5.7-.839,4.352-1.5,7.6-1.772,8.529-1.088,3.792-3.253,5.139-6.217,5.139-.56,0-2.4-.021-5.067-.052-.228,0-.456-.01-.694-.01-11.813-.145-37.522-.529-41.822-.746-5.409-.269-7.3-.819-8.1-3.513-.124-.414-.466-1.876-.953-4.062-.321-1.461-.715-3.233-1.161-5.233-.456-2.145-.984-4.539-1.523-7.067-3.15-14.6-7.181-33.646-7.181-33.646,12.621-6.4,42.392-3.067,62.205.166C146.424,306.735,154.423,308.528,154.423,308.528Z" fill="#dd5c5c"/><path d="M110.269,349.843c-4.724-.889-28.456-26.693-13.431-33.5,7.913-3.583,13.729,15.313,15.757,12.543s9.035-14.374,15.853-10.844C142.334,325.237,117.151,351.138,110.269,349.843Z" fill="#f4c3c6"/><g opacity="0.71" style="mix-blend-mode:multiply;isolation:isolate"><path d="M154.423,308.528s-7.564,41.625-8.642,45.408-3.253,5.139-6.217,5.139-42.174-.539-47.583-.808-7.3-.819-8.1-3.513c-.124-.414-.466-1.876-.953-4.062,17.895,1.409,45.6,2.933,48.868-.736,4.415-4.974,3.648-38.816,3.472-45.044C146.424,306.735,154.423,308.528,154.423,308.528Z" fill="#dd5c5c"/></g><path d="M139.559,360.63c-2.969,0-42.087-.535-47.654-.814-5.139-.257-8.345-.7-9.52-4.619-.82-2.734-10.437-48.2-10.845-50.135l-.247-1.168,1.065-.54c20-10.135,79.868,3.086,82.407,3.654l1.458.326-.267,1.469c-.31,1.7-7.6,41.748-8.685,45.563C146.083,358.522,143.488,360.63,139.559,360.63Zm-64.722-55c3.518,16.632,9.914,46.638,10.525,48.678.467,1.559,1.128,2.129,6.7,2.408,5.2.26,44.286.809,47.5.809,1.858,0,3.716-.486,4.723-4.009.81-2.837,5.663-29.056,8.345-43.784C143.407,307.784,93.173,297.742,74.837,305.626Z" fill="#0d0907"/><path d="M87.121,269.867a55.66,55.66,0,0,1-7.544,1.212c-10.953.912-18.072-2.684-24.092-9.585a25.051,25.051,0,0,1-4.5-8.58,34.349,34.349,0,0,1-1.119-4.507c-1.607-8.86.248-18.093,8.32-18.269a11.759,11.759,0,0,1,1.627.072,9,9,0,0,1,2.052.436c.01,0,.021.01.031.01,8.642,2.85,7.471,17.046,10.352,23.533,3.243,7.3,13.782,4.6,13.782,4.6l.228,2.27.2,2.072.238,2.394.2,2.062Z" fill="#98ce7a"/><path d="M88.53,263.069c-.705.031-1.4.062-2.072.062-.177.011-.353.011-.529.011-8.632,0-15.274-2.56-19.771-7.617a1.069,1.069,0,0,1-.1-.114c-7.1-8.093-6.776-20.082-6.238-25.2a9,9,0,0,1,2.052.436c-.021.2-.031.393-.052.611-.414,5.191-.352,15.792,5.8,22.8,4.145,4.715,10.414,7.077,18.642,7,.7,0,1.43-.021,2.155-.062Z" fill="#6d9b50"/><path d="M90.188,267.39l-.829.062c-.839.063-1.658.114-2.466.135-.643.031-1.285.041-1.917.041a49.712,49.712,0,0,1-5.368-.279,43.716,43.716,0,0,1-28.62-14.435,34.349,34.349,0,0,1-1.119-4.507,41.121,41.121,0,0,0,29.542,16.859,51.851,51.851,0,0,0,7.285.259c1.036-.031,2.093-.093,3.181-.187.041,0,.083-.01.124-.01Z" fill="#6d9b50"/><path d="M76.263,272.792c-8.993,0-15.875-3.311-21.945-10.281-5.217-5.99-8.629-19.752-5.043-27.859a9.464,9.464,0,0,1,8.885-6.073c.116,0,.234,0,.347,0,10.169,0,11.915,9.7,13.322,17.515a35.906,35.906,0,0,0,1.841,7.47c2.68,6.028,11.888,3.745,11.979,3.721l1.758-.451,1.39,14.251-1.333.3A50.572,50.572,0,0,1,76.263,272.792ZM58.487,231.684l-.26,0a6.383,6.383,0,0,0-6.109,4.223c-3.056,6.908-.056,19.278,4.543,24.559,7.367,8.457,15.768,10.869,28.776,8.176l-.784-8.02c-3.445.487-10.929.71-13.825-5.8a37.919,37.919,0,0,1-2.058-8.182C67.194,237.9,65.526,231.684,58.487,231.684Z" fill="#0d0907"/><g opacity="0.55" style="mix-blend-mode:multiply;isolation:isolate"><path d="M89.359,267.452c-.839.063-1.658.114-2.466.135l.228,2.28a55.66,55.66,0,0,1-7.544,1.212c.052-1.254.073-2.57.031-3.73a15.586,15.586,0,0,0-.2-2.083c-.135-.788-.352-1.295-.673-1.347a21.482,21.482,0,0,1-12.58-8.394c-3.534-4.87-6-12.476-4.342-24.268.021-.2.052-.394.083-.6,8.642,2.85,7.471,17.046,10.352,23.533,3.243,7.3,13.782,4.6,13.782,4.6l.228,2.27c.7,0,1.43-.021,2.155-.062l.114,2.072c-.705.031-1.4.062-2.072.062l.238,2.394c1.036-.031,2.093-.093,3.181-.187Z" fill="#6d9b50"/></g><path d="M140.666,269.867a55.635,55.635,0,0,0,7.544,1.212c10.953.912,18.072-2.684,24.092-9.585a25.051,25.051,0,0,0,4.5-8.58,34.346,34.346,0,0,0,1.119-4.507c1.607-8.86-.248-18.093-8.321-18.269a11.751,11.751,0,0,0-1.626.072,9,9,0,0,0-2.052.436c-.01,0-.021.01-.031.01-8.642,2.85-7.471,17.046-10.352,23.533-3.243,7.3-13.782,4.6-13.782,4.6l-.228,2.27-.2,2.072-.238,2.394-.2,2.062Z" fill="#98ce7a"/><path d="M139.257,263.069c.705.031,1.4.062,2.072.062.176.011.353.011.529.011,8.632,0,15.274-2.56,19.771-7.617a1.069,1.069,0,0,0,.1-.114c7.1-8.093,6.776-20.082,6.238-25.2a9,9,0,0,0-2.052.436c.021.2.031.393.052.611.414,5.191.352,15.792-5.8,22.8-4.145,4.715-10.414,7.077-18.642,7-.7,0-1.43-.021-2.155-.062Z" fill="#6d9b50"/><path d="M137.6,267.39l.829.062c.839.063,1.658.114,2.466.135.643.031,1.285.041,1.917.041a49.712,49.712,0,0,0,5.368-.279,43.716,43.716,0,0,0,28.62-14.435,34.346,34.346,0,0,0,1.119-4.507,41.121,41.121,0,0,1-29.542,16.859,51.851,51.851,0,0,1-7.285.259c-1.036-.031-2.093-.093-3.181-.187-.041,0-.083-.01-.125-.01Z" fill="#6d9b50"/><path d="M151.523,272.792a50.562,50.562,0,0,1-11.2-1.407l-1.334-.3,1.39-14.251,1.756.451c.141.036,9.322,2.263,11.981-3.721a36.1,36.1,0,0,0,1.841-7.47c1.406-7.812,3.155-17.515,13.323-17.515.114,0,.229,0,.347,0a9.465,9.465,0,0,1,8.885,6.073c3.586,8.106.173,21.869-5.044,27.859C167.4,269.48,160.515,272.791,151.523,272.792Zm-9.172-4.147c13.008,2.693,21.409.28,28.775-8.176,4.6-5.281,7.6-17.651,4.543-24.559a6.381,6.381,0,0,0-6.108-4.223c-7.26-.142-8.95,6.1-10.544,14.954a37.833,37.833,0,0,1-2.059,8.181c-2.895,6.513-10.378,6.289-13.825,5.8Z" fill="#0d0907"/><g opacity="0.55" style="mix-blend-mode:multiply;isolation:isolate"><path d="M138.428,267.452c.839.063,1.658.114,2.466.135l-.228,2.28a55.635,55.635,0,0,0,7.544,1.212c-.052-1.254-.073-2.57-.031-3.73a15.586,15.586,0,0,1,.2-2.083c.134-.788.352-1.295.673-1.347a21.482,21.482,0,0,0,12.58-8.394c3.533-4.87,6-12.476,4.342-24.268-.021-.2-.052-.394-.083-.6-8.642,2.85-7.471,17.046-10.352,23.533-3.243,7.3-13.782,4.6-13.782,4.6l-.228,2.27c-.7,0-1.43-.021-2.155-.062l-.114,2.072c.705.031,1.4.062,2.072.062l-.238,2.394c-1.036-.031-2.093-.093-3.181-.187Z" fill="#6d9b50"/></g><path d="M141.18,304.466l-10.61-.456-3.109-.135-27.947-1.2-3.119-.134-11.44-.5s-.435-4.4-.86-11.346c-1.337-21.968-2.549-69.313,10.59-82.463a34.668,34.668,0,0,1,9.2-6.632,29.8,29.8,0,0,1,4.176-1.678,26.383,26.383,0,0,1,17.149.155c.218.083.435.155.643.249a22.671,22.671,0,0,1,2.777,1.3c7.274,4.052,12.776,12.124,13.9,24.175C145.232,254.727,141.18,304.466,141.18,304.466Z" fill="#98ce7a"/><path d="M99.514,302.673l-3.119-.134c-4.238-59.656,2.518-88.411,7.492-100.939a29.8,29.8,0,0,1,4.176-1.678C103.452,209.963,94.913,238.013,99.514,302.673Z" fill="#6d9b50"/><path d="M132.186,261.577c-1.254,22.931-1.554,36.174-1.616,42.433l-3.109-.135c.072-6.362.373-19.646,1.627-42.474,1.482-27.129-2.27-52.164-3.876-61.324a23.661,23.661,0,0,1,3.42,1.554C130.393,212.273,133.585,236.013,132.186,261.577Z" fill="#6d9b50"/><path d="M142.608,306.083l-59.067-2.547-.133-1.341c-.312-3.154-7.434-77.439,10.178-95.062a36.106,36.106,0,0,1,9.619-6.929,31.2,31.2,0,0,1,4.389-1.764,27.767,27.767,0,0,1,18.153.178,25.108,25.108,0,0,1,3.641,1.655c8.385,4.671,13.6,13.688,14.686,25.39,2.687,28.723-1.3,78.431-1.345,78.93ZM86.38,300.548l53.366,2.3c.64-8.5,3.634-51.234,1.234-76.9-.989-10.651-5.643-18.805-13.1-22.962a22.134,22.134,0,0,0-3.194-1.451,24.686,24.686,0,0,0-16.147-.135,28.189,28.189,0,0,0-3.961,1.591,33.071,33.071,0,0,0-8.792,6.339C80.434,224.691,85.487,290.306,86.38,300.548Z" fill="#0d0907"/><path d="M109.284,232.791a.973.973,0,0,1-.107-.006,1.036,1.036,0,0,1-.925-1.136c.124-1.218.166-4.689-1.114-6.107a1.73,1.73,0,0,0-1.369-.59c-1.526,0-2.38,3.92-2.479,6.57a1.036,1.036,0,1,1-2.07-.074c.031-.877.425-8.568,4.549-8.568a3.813,3.813,0,0,1,2.909,1.276c2.122,2.353,1.692,7.165,1.636,7.7A1.037,1.037,0,0,1,109.284,232.791Z" fill="#253d15"/><path d="M120.388,232.791a.991.991,0,0,0,.108-.006,1.037,1.037,0,0,0,.925-1.136c-.125-1.218-.166-4.689,1.114-6.107a1.728,1.728,0,0,1,1.369-.59c1.526,0,2.38,3.92,2.478,6.57a1.036,1.036,0,1,0,2.07-.074c-.031-.877-.424-8.568-4.548-8.568a3.813,3.813,0,0,0-2.91,1.276c-2.122,2.353-1.692,7.165-1.636,7.7A1.037,1.037,0,0,0,120.388,232.791Z" fill="#253d15"/><path d="M113.608,257.66a4.171,4.171,0,0,1-3.178-1.463c-4.032-4.431-2.865-18.127-2.718-19.674a1.036,1.036,0,1,1,2.062.2c-.373,3.952-.706,14.9,2.189,18.085a2.126,2.126,0,0,0,1.645.785,2.256,2.256,0,0,0,1.664-.785c3.141-3.265,3.409-14.789,3.248-18.953a1.036,1.036,0,0,1,2.071-.081c.025.647.567,15.9-3.826,20.47A4.275,4.275,0,0,1,113.608,257.66Z" fill="#253d15"/><path d="M100.633,237.7c0,1.493-2.178,2.7-4.866,2.7S90.9,239.2,90.9,237.7s2.178-2.7,4.865-2.7S100.633,236.209,100.633,237.7Z" fill="#b1e092"/><path d="M136.585,237.161c0,1.493-2.178,2.7-4.865,2.7s-4.866-1.21-4.866-2.7,2.178-2.7,4.866-2.7S136.585,235.668,136.585,237.161Z" fill="#b1e092"/><g opacity="0.55" style="mix-blend-mode:multiply;isolation:isolate"><path d="M141.18,304.466l-10.61-.456-3.109-.135-27.947-1.2-3.119-.134-11.44-.5s-.435-4.4-.86-11.346c18.963-.166,51.438,2.3,51.749,1.679.4-.809,2.435-49.263,1.015-66.7-.86-10.528-6.59-19.72-11-25.346a22.671,22.671,0,0,1,2.777,1.3c7.274,4.052,12.776,12.124,13.9,24.175C145.232,254.727,141.18,304.466,141.18,304.466Z" fill="#6d9b50"/></g><path d="M157.936,312.58c-2.155.539-19.968-4.3-43.241-5.409a292.6,292.6,0,0,0-30.818,0c-8.4.528-13.792,1.627-14.6-.808a17.8,17.8,0,0,1-.705-3.358c-.279-2.394-.083-4.943,1.513-5.3,2.435-.539,15.948-1.617,47.3,0,18.03.933,29.542,1.959,36.112,3.223,4.86.932,7.026,2,7.14,3.264C160.91,307.171,160.1,312.041,157.936,312.58Z" fill="#f4c3c6"/><g style="mix-blend-mode:multiply;isolation:isolate"><path d="M157.936,312.58c-2.155.539-19.968-4.3-43.241-5.409a292.6,292.6,0,0,0-30.818,0c-8.4.528-13.792,1.627-14.6-.808a17.8,17.8,0,0,1-.705-3.358c5.938-.311,15.419-.5,29.968-.5a303.485,303.485,0,0,1,54.132,4.663c.684.145.819-3.731.829-6.238,4.86.932,7.026,2,7.14,3.264C160.91,307.171,160.1,312.041,157.936,312.58Z" fill="#f4c3c6"/></g><path d="M157.472,314.174a58.312,58.312,0,0,1-7.6-1.12,269.716,269.716,0,0,0-35.256-4.327,291,291,0,0,0-30.646,0h0c-1.724.108-3.321.239-4.775.36-6.464.536-10.363.856-11.393-2.231-.508-1.523-1.626-6.454-.158-9.046A3.184,3.184,0,0,1,69.75,296.2c2.544-.567,16.077-1.673,47.723-.036,37.593,1.945,44.373,4.1,44.719,7.9.262,2.89-.339,9.144-3.875,10.028A3.494,3.494,0,0,1,157.472,314.174Zm-59.2-8.957c5.246,0,10.826.135,16.489.4a272.228,272.228,0,0,1,35.652,4.372,58.3,58.3,0,0,0,7.195,1.068c.716-.181,1.753-3.523,1.492-6.641-1.422-2.061-15.48-3.795-41.79-5.156-31.15-1.613-44.624-.538-46.889-.035-.618.462-.56,3.979.326,6.641.256.772,5.03.376,8.188.116,1.474-.121,3.091-.255,4.838-.364C88.1,305.352,93.022,305.217,98.275,305.217Z" fill="#0d0907"/><path d="M87.92,275.144a.992.992,0,0,1-.108-.006A1.036,1.036,0,0,1,86.888,274c.579-5.584.52-29.111.519-29.348a1.037,1.037,0,0,1,1.033-1.04h0a1.036,1.036,0,0,1,1.036,1.034c0,.972.06,23.874-.529,29.567A1.038,1.038,0,0,1,87.92,275.144Z" fill="#fff"/><path d="M87.328,279.812a1.352,1.352,0,1,1,1.64-.984A1.352,1.352,0,0,1,87.328,279.812Z" fill="#fff"/></g></svg>