<svg xmlns="http://www.w3.org/2000/svg" width="38.556" height="45.593" viewBox="0 0 38.556 45.593"><path d="M449.7,21.226c-2.474-4-7.225-4.124-10.857-1.617-3.257,2.247-5.163,5.866-6.2,9.69-3.3-4.342-7.752-8.548-12.974-7.915-5.493.666-7.083,6.222-6.3,10.956,2.268,13.712,16.1,26.182,28.4,31.08,1.3.517,2.228-.943,1.914-2.055a2.125,2.125,0,0,0,.739-.485,2.784,2.784,0,0,0,.792-2.81,1.29,1.29,0,0,0-.262-.578c1.185-1.391,3.493-7.344,3.776-8.185a53.966,53.966,0,0,0,2.366-10.487C451.738,33.675,452.622,25.947,449.7,21.226ZM446.444,39.9a50.4,50.4,0,0,1-4.384,13.943c-.819,1.684-2.034,3.358-1.88,4.974-7.119-4.418-13.381-9.9-17.917-17.091-1.965-3.113-5.252-7.971-4.717-11.868A4.588,4.588,0,0,1,421.907,26c1.52-.014,3.687,2.318,4.735,3.341a37.091,37.091,0,0,1,5.352,6.91,2.259,2.259,0,0,0,4.173-1.13c.271-3.776,5.272-17.975,9.986-10.787C448.436,27.813,447.059,36.11,446.444,39.9Z" transform="translate(-413.185 -17.935)" fill="#3c3c3b"/></svg>