<svg xmlns="http://www.w3.org/2000/svg" width="198.205" height="180.962" viewBox="0 0 198.205 180.962"><g transform="translate(0)"><path d="M35.337,88.686l-1.346,69.168L40.6,171.447l14.465,5.768h95.576s16.87-5.413,18.025-24.177,0-65.891,0-65.891,16.7-7.888,16.622-22.424-13.132-26.23-18.757-25.88-129.114,0-129.114,0S16.567,46.9,17.172,62.112,35.337,88.686,35.337,88.686Z" fill="#ffe266"/><path d="M48.441,38.836H79.464V177.221H123.7V38.836h30.363s8.142-12.064,1.965-21.714-13.375-14.9-20.361-14.428S108.419,18.8,108.419,18.8H95.362S79.816,4.914,73.9,4.124,51.26,8.087,48.441,14.681,48.441,38.836,48.441,38.836Z" fill="#9adcf2"/><path d="M26.14,83.85,5.98,104.2,17.61,110.3l2.627,16.042,12.448-4.483V86.179Z" fill="#9adcf2"/><path d="M12.524,83.85,32.685,104.2,21.055,110.3,18.428,126.34,5.98,121.858V86.179Z" transform="translate(163)" fill="#9adcf2"/><path d="M26.937,43.732s-10.72,11.451-9.8,19.817,11.178,24.278,18.154,24.16,132.45,0,132.45,0,18.437-7.49,17.576-24.16S167.738,39.4,167.738,39.4H123.1l-6.258-15.1L101.182,17.4,86.751,23.855,79.727,39.4H35.288Z" fill="#fff" opacity="0.302"/><path d="M64.964,38.836H35.028S17.667,46.3,17.821,62.453,35.028,87.583,35.028,87.583H64.964S54.349,75.845,54.192,62.453,64.964,38.836,64.964,38.836Z" opacity="0.6" style="mix-blend-mode:overlay;isolation:isolate"/><path d="M32.685,129.658c.324.09,0-42.32,0-42.32h134.19V97.709S87.066,100.354,32.685,129.658Z" opacity="0.6" style="mix-blend-mode:overlay;isolation:isolate"/><path d="M237.181-515.475c-11.045,2.723-18.383,9.456-21.258,19.518-1.21,4.312-1.21,11.65.076,14.9.378.983-.378,1.286-4.69,1.664a27.582,27.582,0,0,0-22.317,15.508c-1.362,2.723-1.816,5.144-1.967,10.364-.3,8.019,1.286,13.466,5.447,18.232l2.5,2.95-1.891,2.5a88.966,88.966,0,0,1-9,8.549L172.5-415.162v3.556c0,4.917,6.733,7.036,12.558,7.489l4.236.378-.454,2.723c-1.437,8.549-1.437,10.969.3,13.088,1.362,1.816,2.194,2.118,5.447,2.118a12.051,12.051,0,0,0,6.279-1.513l2.5-1.589.3,16.492c.227,16.189.227,16.568,2.345,21.031a32.348,32.348,0,0,0,14.449,14.525l4.615,2.118h97.59l4.69-2.194c5.749-2.648,11.575-8.549,14.449-14.6,1.967-4.312,2.043-4.842,2.27-20.8l.3-16.416,2.345,1.513a12.947,12.947,0,0,0,6.355,1.437c3.329,0,4.161-.3,5.522-2.043,1.74-2.194,1.74-4.615.3-13.163l-.454-2.723,4.236-.378c5.825-.454,8.019-2.572,8.019-7.489v-3.556l-7.489-6.506a90.031,90.031,0,0,1-9-8.549l-1.513-2.118,2.572-2.95c4.161-4.842,5.825-10.213,5.447-18.232-.227-5.069-.681-7.716-1.967-10.364a27.884,27.884,0,0,0-12.861-12.861l-4.993-2.5-21.409-.227c-19.442-.227-21.409-.378-21.409-1.513a24.592,24.592,0,0,0-2.194-5.825,24.936,24.936,0,0,0-9-10.364l-1.816-1.21,4.842-4.009a47.45,47.45,0,0,1,7.792-5.3c3.556-1.664,11.5-1.816,15.584-.378,6.582,2.345,11.272,8.019,12.861,15.584.983,4.917,1.891,6.2,3.934,5.9,2.648-.378,3.253-2.345,2.194-7.111-1.891-9.078-6.884-15.508-15.206-19.442a20.2,20.2,0,0,0-10.591-2.345c-8.851-.076-14.828,2.648-23.376,10.667l-3.934,3.707H268.577l-3.934-3.707c-4.917-4.615-9.078-7.414-13.39-9.154C247.848-515.248,239.9-516.156,237.181-515.475Zm12.861,7.792a47.45,47.45,0,0,1,7.792,5.3l4.842,4.009-1.816,1.21a24.936,24.936,0,0,0-9,10.364,24.592,24.592,0,0,0-2.194,5.825c0,1.21-1.135,1.362-13.163,1.362H223.337l-.983-2.875a24.063,24.063,0,0,1,.605-14.6c3.556-7.943,9.91-12.028,18.686-12.028A20.709,20.709,0,0,1,250.042-507.683Zm31.773,14.525c4.842,2.27,10.213,9,10.213,12.785,0,.454-6.2.757-18.156.757-13.466,0-18.156-.227-18.156-.908,0-1.74,3.026-7.111,5.144-9.154A19.419,19.419,0,0,1,281.815-493.158Zm-32.152,40.851v21.182l-20.955-.227-21.031-.227-4.085-2.27a22.24,22.24,0,0,1-9.683-11.2,29.115,29.115,0,0,1-.908-7.338,19.446,19.446,0,0,1,7.111-15.735c5.6-4.917,7.792-5.371,30.109-5.371l19.442-.076Zm43.272-2.95.227,18.383H297.7l.227-18.383.151-18.307h19.14c22.241,0,24.738.454,30.412,5.447a19.446,19.446,0,0,1,7.111,15.735c-.076,8.927-3.783,15.055-11.272,18.837L338.7-431.2H254.959v-42.364h37.825Zm-90.327,27.688c.681.53.908,4.236.757,16.114l-.227,15.433L199.2-393.9c-2.194,1.21-4.312,1.967-4.69,1.74-.3-.227,0-3.858.757-8.17,1.816-9.91,1.513-10.44-6.657-10.44-3.026,0-5.523-.3-5.523-.605,0-.378,2.875-3.1,6.355-6.128a74.4,74.4,0,0,0,8.4-8.095C199.81-428.249,200.869-428.628,202.609-427.569ZM349.826-425.6a68.252,68.252,0,0,0,8.4,8.095c3.556,3.026,6.43,5.749,6.43,6.128,0,.3-2.5.605-5.522.605-8.17,0-8.473.53-6.657,10.667.832,4.312,1.286,8.019,1.059,8.246-.151.227-2.27-.681-4.615-1.967l-4.312-2.345-.227-15.357c-.151-15.584,0-16.568,2.572-16.643C347.48-428.174,348.691-426.963,349.826-425.6Zm-100.162,5.674q0,8.624,3.631,6.355c.983-.53,1.362-2.118,1.513-6.2l.227-5.371h83.216l-.227,33.816L337.8-357.44l-2.118,4.312a23.154,23.154,0,0,1-10.591,10.591l-3.177,1.74H225.834l-3.177-1.74a23.154,23.154,0,0,1-10.591-10.591l-2.118-4.312-.227-33.892-.227-33.816h40.171Z" transform="translate(-172.5 515.707)" fill="#020102" fill-rule="evenodd"/><path d="M263.736-366.871c-.983.757-1.286,1.891-1.059,5.069.227,4.085.3,4.161,2.5,4.161s2.27-.076,2.5-4.312c.151-3.556,0-4.388-1.21-5.069A2.265,2.265,0,0,0,263.736-366.871Z" transform="translate(-194.44 479.596)" fill="#020102" fill-rule="evenodd"/><path d="M344.736-366.871c-.983.757-1.286,1.891-1.059,5.069.227,4.085.3,4.161,2.5,4.161s2.27-.076,2.5-4.312c.151-3.556,0-4.388-1.21-5.069A2.265,2.265,0,0,0,344.736-366.871Z" transform="translate(-214.163 479.596)" fill="#020102" fill-rule="evenodd"/><path d="M290.391-363.109c-1.74,1.664-1.891,2.421-1.891,8.019,0,11.045,4.69,16.946,13.617,16.946s13.617-5.9,13.617-16.946c0-5.6-.151-6.355-1.891-8.019-1.74-1.816-2.194-1.891-11.726-1.891S292.131-364.924,290.391-363.109Z" transform="translate(-200.745 479.011)" fill="#020102" fill-rule="evenodd"/></g></svg>