<svg xmlns="http://www.w3.org/2000/svg" width="193.658" height="193.616" viewBox="0 0 193.658 193.616"><g transform="translate(0)"><path d="M3.432,150.172l38.132,39.541h8.141L191.295,49.269v-5.8L152.518,5.059l-9.351-2.547L3.432,142.818Z" fill="#ffe266"/><circle cx="7" cy="7" r="7" transform="translate(33.308 146.592)" fill="#f9c450"/><circle cx="7" cy="7" r="7" transform="translate(146.308 32.592)" fill="#f9c450"/><path d="M35.839,183.563c-7.925-2.134,8.255,6.738,8.255,6.738l9.393-3.384L190.083,49.36V42.522L180.077,32.361s7.211,7.675,0,15.109S46.062,181.323,46.062,181.323,43.764,185.7,35.839,183.563Z" fill="#f9c450"/><path d="M319.09-523.164c-2.345,1.286-138.744,137.76-140.03,140.03-1.286,2.421-1.437,9.078-.227,11.423.454.908,5.976,6.884,12.255,13.163,9.305,9.381,11.877,11.575,13.541,11.575,1.21,0,2.118-.3,2.118-.681a8.755,8.755,0,0,1,.454-1.967c.378-.908-2.8-4.539-11.348-13.088-10.969-11.121-11.8-12.1-11.8-14.752,0-2.421.681-3.48,4.842-7.868l4.917-5.144,5.22,5.144c4.01,4.01,5.674,5.144,7.036,4.917a2.138,2.138,0,0,0,2.043-2.043c.227-1.362-.908-3.026-4.842-6.96l-5.22-5.22,3.631-3.556,3.556-3.631,4.009,4.009c4.085,4.01,5.6,4.615,7.187,3.026s.983-3.1-3.026-7.187l-4.009-4.009,3.631-3.556,3.556-3.631,4.009,4.009c4.085,4.01,5.6,4.615,7.187,3.026s.983-3.1-3.026-7.187l-4.009-4.009,3.631-3.556,3.556-3.631,4.009,4.009c4.085,4.01,5.6,4.615,7.187,3.026s.983-3.1-3.026-7.187l-4.009-4.009,3.631-3.556,3.556-3.631,4.009,4.009c4.085,4.01,5.6,4.615,7.187,3.026s.983-3.1-3.026-7.187l-4.009-4.009,3.631-3.556,3.556-3.631,5.22,5.22c3.934,3.934,5.6,5.069,6.96,4.842a2.138,2.138,0,0,0,2.043-2.043c.227-1.362-.908-3.026-4.842-6.96l-5.22-5.22,3.631-3.556,3.556-3.631,4.009,4.009c4.085,4.009,5.6,4.615,7.187,3.026s.983-3.1-3.026-7.187l-4.009-4.009,3.631-3.556,3.556-3.631,4.009,4.009c4.085,4.009,5.6,4.615,7.187,3.026s.983-3.1-3.026-7.187l-4.009-4.009,3.631-3.556,3.556-3.631,4.009,4.009c4.085,4.009,5.6,4.615,7.187,3.026s.983-3.1-3.026-7.187l-4.009-4.009,3.631-3.556,3.556-3.631,4.009,4.009c4.085,4.009,5.6,4.615,7.187,3.026s.983-3.1-3.026-7.187l-4.009-4.009,3.631-3.556,3.556-3.631,5.22,5.22c3.934,3.934,5.6,5.069,6.96,4.842a2.138,2.138,0,0,0,2.043-2.043c.227-1.362-.908-3.026-4.917-7.036l-5.144-5.22,5.144-4.917c4.388-4.161,5.447-4.842,7.943-4.842s3.4.605,6.96,4.236c5.144,5.22,6.355,5.9,8.322,4.842,2.648-1.437,1.816-3.934-2.8-8.4a64.169,64.169,0,0,0-6.279-5.523C328.7-524.147,321.435-524.45,319.09-523.164Z" transform="translate(-178.005 523.984)" fill="#020102" fill-rule="evenodd"/><path d="M354.112-499.806c-1.059,2.648,0,4.085,10.515,14.676,9.835,9.91,10.969,11.348,10.969,13.693,0,2.421-4.388,6.96-69.069,71.641-78.828,78.753-70.734,72.1-78.374,64.833-2.421-2.27-5.069-4.161-5.825-4.161A3.207,3.207,0,0,0,219-336.1c0,1.286,7.716,9.154,10.364,10.515,2.118,1.059,8.927,1.059,11.045,0,2.345-1.21,138.819-137.533,140.181-140.03,1.286-2.421,1.437-9.078.227-11.423-.454-.908-5.825-6.657-11.877-12.861C357.895-500.94,355.247-502.756,354.112-499.806Z" transform="translate(-187.987 518.404)" fill="#020102" fill-rule="evenodd"/><path d="M375.02-484a11.277,11.277,0,0,0-7.035,7.187,10.094,10.094,0,0,0,12.482,12.255c6.733-1.816,9.229-8.851,5.674-15.66C384.552-483.173,378.954-485.14,375.02-484Zm5.749,6.733a5.233,5.233,0,0,1,1.513,3.026,5.233,5.233,0,0,1-1.513,3.026,5.233,5.233,0,0,1-3.026,1.513,5.233,5.233,0,0,1-3.026-1.513,5.233,5.233,0,0,1-1.513-3.026,5.233,5.233,0,0,1,1.513-3.026,5.232,5.232,0,0,1,3.026-1.513A5.232,5.232,0,0,1,380.77-477.272Z" transform="translate(-224.177 514.329)" fill="#020102" fill-rule="evenodd"/><path d="M327.69-429.457a11.071,11.071,0,0,0-4.69,8.17c0,1.589,2.95,6.355,4.161,6.733a3.352,3.352,0,0,0,2.27-.832c1.286-.908,1.362-1.286.378-4.085-.757-2.572-.832-3.329,0-4.312,1.135-1.362,3.253-1.437,5.3-.227,1.891,1.21,4.085.076,4.388-2.27.151-1.135-.454-2.043-2.27-3.177A8.716,8.716,0,0,0,327.69-429.457Z" transform="translate(-213.31 501.313)" fill="#020102" fill-rule="evenodd"/><path d="M315.861-394.366c-.378.983-.832,2.723-1.135,3.858-.378,2.043-1.286,2.648-6.052,4.01-4.085,1.286-3.026,5.6,1.286,5.6,5.22,0,11.2-5.9,11.2-11.121C321.156-395.955,317.222-397.695,315.861-394.366Z" transform="translate(-209.197 492.851)" fill="#020102" fill-rule="evenodd"/><path d="M276.522-377.832A10.146,10.146,0,0,0,271-369.51c0,3.329,2.648,7.338,4.69,7.036,2.345-.3,3.48-2.5,2.27-4.388-1.21-2.043-1.135-4.161.227-5.3.983-.832,1.74-.757,4.312,0,2.8.983,3.177.908,4.085-.3,1.362-1.967.151-4.085-3.1-5.447C280.305-379.194,279.624-379.194,276.522-377.832Z" transform="translate(-200.649 488.648)" fill="#020102" fill-rule="evenodd"/><path d="M225.038-334.036a10.2,10.2,0,0,0-6.96,12.482,9.923,9.923,0,0,0,7.187,7.111c2.648.832,3.48.757,6.506-.605C243.043-320.04,236.916-337.364,225.038-334.036Zm5.749,6.733a5.233,5.233,0,0,1,1.513,3.026c0,1.967-2.572,4.539-4.539,4.539a5.232,5.232,0,0,1-3.026-1.513,5.233,5.233,0,0,1-1.513-3.026,5.233,5.233,0,0,1,1.513-3.026,5.232,5.232,0,0,1,3.026-1.513A5.232,5.232,0,0,1,230.788-327.3Z" transform="translate(-187.671 477.836)" fill="#020102" fill-rule="evenodd"/></g></svg>