<svg xmlns="http://www.w3.org/2000/svg" width="193.666" height="111.91" viewBox="0 0 193.666 111.91"><g transform="translate(76 -78)"><g transform="translate(0 0)"><path d="M-17.655,152.168l45.079-1.8,32.3,1.8L72.277,170.72l2.26,12.148-13.056,4.759H-24.454l-9.988-4.759v-7.544Z" fill="#ffe266"/><path d="M16.866,159.929H49.472v15.694H16.866Z" fill="#c6e3f7"/><path d="M-72.846,93.949l3.717,9.839h10.177l16.582,28.228L78.735,133.9l14.934-13.385,6-16.722h12.5l1.178-12.82-14.9-9.433H-60.441Z" fill="#ffe266"/><path d="M-54.48,106.262s127.249-.1,127.051,0c14.435-.023,11.636,13.959,0,25.134-2.846,3.33,7.135,1.962,7.135,1.962l13.156-11.732,5.255-19.4-6.634-4.138h-142.6l-7.413,5.876Z" fill="#f9c450"/><path d="M94.9,81.647c7.69,6.289,15.472,15.5,8,21.45s6.6,2.625,6.6,2.625l5.137-10.138L101.874,81.647Z" fill="#f9c450"/><path d="M193.811-469.3c-3.329,1.059-5.447,2.421-9.608,6.43-5.144,4.842-6.2,6.884-6.2,12.028,0,7.414,5.22,12.255,12.634,11.65l3.934-.3,2.421,6.128c4.009,9.986,5.674,12.936,9.759,16.568,6.884,6.2,8.775,6.582,34.043,6.582h21.939v9.078H250.852c-18.383,0-20.2,1.21-29.126,19.291-4.69,9.381-5.22,10.969-4.917,13.92a10.325,10.325,0,0,0,5.9,8.549c2.345,1.286,6.43,1.362,52.123,1.362s49.778-.076,52.123-1.362a10.325,10.325,0,0,0,5.9-8.549c.3-2.95-.227-4.539-4.917-13.92-6.128-12.407-8.17-15.055-13.39-17.475-3.48-1.664-4.766-1.816-15.66-1.816H286.937v-9.078h21.939c25.343,0,27.537-.454,34.27-6.733,3.934-3.631,5.6-6.582,9.532-16.416L355.1-439.5l3.934.3c7.414.605,12.634-4.236,12.634-11.65,0-5.144-1.059-7.187-6.2-12.028-7.111-6.809-6.809-6.733-27.234-6.96-16.946-.227-17.929-.151-18.686,1.21a2.555,2.555,0,0,0,.378,3.026c1.135,1.589,1.664,1.664,16.794,1.664,18.156,0,19.442.378,25.267,6.657,4.236,4.539,4.766,7.414,1.74,10.364-2.8,2.875-5.069,2.421-9.835-1.891l-4.161-3.783H293.443c-50.232,0-56.436.151-57.495,1.21-1.513,1.437-1.513,2.875-.227,4.009.757.605,17.173.908,56.889.983,50.081.227,55.906.378,56.587,1.437.53.908-.151,3.556-2.8,10.213-3.783,9.759-6.43,13.39-12.1,16.416l-3.1,1.664h-56.36c-54.469,0-56.436-.076-59.386-1.513-5.447-2.648-8.246-6.506-12.18-16.341-2.8-7.036-3.48-9.381-2.8-10.364.681-1.135,2.5-1.286,12.709-1.513,12.255-.227,14-.605,14-3.253,0-2.421-2.572-2.95-15.055-2.95h-12.18l-4.161,3.783c-4.615,4.161-6.657,4.615-9.759,2.194-1.513-1.135-1.967-2.194-1.967-4.388,0-2.345.605-3.329,4.009-6.582,2.118-2.118,4.615-4.312,5.371-4.917,1.21-.908,10.515-1.135,59.31-1.437,54.015-.378,57.949-.454,58.705-1.74a2.157,2.157,0,0,0,0-2.648c-.757-1.21-4.463-1.286-58.251-1.437C221.651-469.832,194.87-469.6,193.811-469.3Zm116.5,74.97a13.426,13.426,0,0,1,4.463,2.421c2.648,2.5,12.255,22.09,11.726,24.057-.983,3.858,0,3.783-51.9,3.783H226.341l-1.816-1.891a6.116,6.116,0,0,1-1.891-2.648c0-1.664,10.515-21.636,12.18-23.225a15.569,15.569,0,0,1,3.707-2.421C241.017-395.24,306.833-395.316,310.313-394.332Z" transform="translate(-254 547.93)" fill="#020102" fill-rule="evenodd"/><path d="M268.341-364.239c-6.733,1.059-10.515,9.759-6.809,15.811,4.539,7.489,16.568,5.749,18.913-2.723C282.412-358.338,275.906-365.374,268.341-364.239Z" transform="translate(-273.985 522.225)" fill="#020102" fill-rule="evenodd"/><path d="M297.183-363.79c-1.664,1.589-1.74,17.778-.151,19.14.681.605,6.506.832,19.442.681l18.459-.227.227-9.456c.151-8.246,0-9.532-1.135-10.364-.908-.757-5.825-.983-18.459-.983C300.889-365,298.166-364.849,297.183-363.79Zm32.454,9.759v4.539l-13.768.227-13.844.151v-9.835l13.844.151,13.768.227Z" transform="translate(-282.704 522.38)" fill="#020102" fill-rule="evenodd"/><path d="M264.156-364.3c-3.323.523-5.19,4.816-3.36,7.8,2.24,3.7,8.177,2.838,9.334-1.344A5.3,5.3,0,0,0,264.156-364.3Z" transform="translate(-268.738 527.46)" fill="#ff5c64" fill-rule="evenodd"/><path d="M14.715,137.779H26.349V146.9H14.715Z" fill="#424144"/></g></g></svg>