<svg xmlns="http://www.w3.org/2000/svg" width="1000" height="486.118" viewBox="0 0 1000 486.118">
  <g id="sf" transform="translate(-0.026)">
    <path id="Path_5" data-name="Path 5" d="M1958.3,288.94c-1.515,6.107-5.645,10.441-10.054,14.471a32.724,32.724,0,0,1-6.6,4.137c-.758.432-1.871.333-3.576.591,2.273-7.577,6.47-13.214,10.031-19.2Z" transform="translate(-1004.159 -288.94)"/>
    <path id="Path_6" data-name="Path 6" d="M1158.983,330.41c.636-2.061.977-3.031,1.227-4.008,1.561-6.266,3.417-12.3,7.948-17.29a22,22,0,0,1,16.858-7.122,14.093,14.093,0,0,1,8.7,3.6,17.138,17.138,0,0,1,5.705,12.729c-.091,5.425,0,11.054-2.129,16.259-2.515,6.061-4.356,12.486-9.509,17.1a13.3,13.3,0,0,0-1.561,2.273c-4.425,6.258-8.66,12.668-13.4,18.676-1.917,2.425-3.864,4.811-5.652,7.342-2.478,3.516-7.2,3.849-9.615.455-3.144-4.425-5.705-9.206-5.978-14.843a2.154,2.154,0,0,0-.25-1.174c-3.387-4.152-4.546-9.244-5.963-14.206-1.023-3.523-2.084-7.039-2.993-10.607-.864-3.364-1.568-6.766-2.319-10.153s.818-6.061,2.925-8.372a4.622,4.622,0,0,1,5.508-1.2c3.22,1.515,6.365,3.106,7.918,6.66A27.984,27.984,0,0,0,1158.983,330.41Zm2.061,38.7c1.515-1.1,2.273-1.417,2.682-2.015,3.91-5.97,7.675-12.032,11.63-17.964,2.69-4.038,5.683-7.8,8.092-12.123,3.152-5.652,3.947-11.532,4.372-17.578.144-2.091-1.2-4.349-2.114-6.425-.288-.652-1.591-1.515-2.091-1.3-2.561.924-5.523,1.6-7.4,3.372-6.417,6.061-7.789,14.191-8.115,22.548-.159,4.122,0,8.251,0,12.373-.386,1.765-3.091-1.841-2.425,1.015.424,1.818-1.2,2.311-2.228,2.1-2.333-.485-4.7-1.1-5.789-3.788-2.031-5.016-4.258-9.956-6.4-14.918-.978,2.8-.046,5.342,1.008,7.895.629,1.553,1.114,3.167,1.637,4.758,2.288,7.092,4.591,14.206,7.145,22.056Zm-1.212-22.548c.348-.364.841-.659.841-.947s-.6-.894-.758-.841a5.135,5.135,0,0,0-1.235.909Z" transform="translate(-810.724 -292.102)"/>
    <path id="Path_7" data-name="Path 7" d="M1466.681,844.549c2.947-1.47,5.652-2.94,8.456-4.19,4.887-2.174,8.607,0,9.956,5.182,2.409,9.251-1.7,16.669-6.766,23.488-4.114,5.6-9.85,9.622-16.093,12.683-2.788,1.356-4.857,4.47-8.592,3.72-.235-.045-.568.591-.909.818-3.2,2.106-6.41,4.167-9.6,6.281-2.675,1.773-5.387,3.508-7.963,5.417-2.19,1.621-4.493,1.9-6.3.439-1.674-1.356-2.106-3.576-.417-5.758,2.508-3.25,3.137-6.781,3.106-10.736-.091-10.077,2.167-19.775,5.3-29.284,2.432-7.44,7.046-13.433,12.88-18.464a9.852,9.852,0,0,1,4.546-2.1c5.546-.932,7.736,0,10.031,4.963A52.877,52.877,0,0,1,1466.681,844.549Zm-31.011,27.89c1.47,1.333,2.932,2.121,2.849,2.69-.432,3.031,1.152,6.334-1.167,9.251-1.136,1.424,0,2.053,1.068,2.061,1.114-1.629,1.712-3.432,2.947-4.16,4.978-2.94,10.13-5.569,15.259-8.243,1.621-.849,3.705-1.114,4.955-2.273,3.985-3.788,8.054-7.577,11.365-11.986,2.273-3.031,4.16-6.69,3.538-11.6-5.97,2.591-10.1,6.266-12.214,12-.53,1.424-.492,3.031-.939,4.546-.758,2.553-3.213,4.137-5.182,3.569-1.515-.447-3.122-3.25-2.72-5.3a30.946,30.946,0,0,1,1.72-5.728c2.167-5.3,2.318-10.8,1.576-16.343-.371-2.773-1.712-3.084-4.167-1.629a20.631,20.631,0,0,0-8.41,10.069,184.52,184.52,0,0,0-6.107,17.8C1439.359,869.355,1439.049,871.559,1435.67,872.438Z" transform="translate(-880.401 -420.476)"/>
    <path id="Path_9" data-name="Path 9" d="M774.419,605.293c-6.463.758-9.85-2.478-12.418-6.251a100.27,100.27,0,0,1-12.471-24.45c-1.008-3.031-3.031-5.592-3.122-9.016-.053-3.114.235-6.061,1.917-8.7a4.47,4.47,0,0,1,7.645-.318,13.255,13.255,0,0,1,1.7,2.75q2.5,5.872,4.864,11.812c2.659,6.705,5.41,13.38,7.842,20.169C771.926,595.656,772.957,600.164,774.419,605.293Z" transform="translate(-715.376 -353.309)"/>
    <path id="Path_11" data-name="Path 11" d="M1965.23,663.877c3.97-6.819,7.1-12.57,10.607-18.07,1.773-2.788,4.326-5.061,5.773-8.122,2.091-4.417,5.023-8.531,5.44-13.562.265-3.2.106-6.448.106-9.668,0-2.068,0-4.16,2.568-4.788,2.273-.568,4.16.629,4.94,3.675,2.485,9.622,2.2,18.881-4.069,27.276-4.493,6-8.971,12-14.593,17.017a83.524,83.524,0,0,1-6.7,5.561C1968.5,663.756,1967.185,663.582,1965.23,663.877Z" transform="translate(-1010.74 -366.63)"/>
    <path id="Path_13" data-name="Path 13" d="M1263,916.92c-4.44-.629-6.819-2.394-8.569-5.061-1.2-1.788-2.364-3.6-3.561-5.387-5.554-8.334-5.493-20.76-.121-28.791a8.509,8.509,0,0,1,2.728-2.4c2.667-1.584,3.273-1.318,5.387,1.955-3.16,2.818-4.16,6.455-4.19,10.607-.068,7.531,2.478,14.327,5.395,21.071C1261.083,911.268,1261.841,913.723,1263,916.92Z" transform="translate(-836.618 -430.803)"/>
    <path id="Path_14" data-name="Path 14" d="M1988.06,666.259c.962-1.977,1.515-4.334,2.97-5.857,4.175-4.432,8.66-8.569,13.108-12.736,2.334-2.19,4.826-4.213,7.266-6.281,1.167-.993,2.644-1.4,3.788-.28a4.129,4.129,0,0,1,1.091,3.175,14.118,14.118,0,0,1-2.114,5.432,39.161,39.161,0,0,1-16.093,13.214c-3.031,1.333-5.88,2.955-8.812,4.447Z" transform="translate(-1016.273 -374.119)"/>
    <path id="Path_15" data-name="Path 15" d="M1074.131,860.847c2.273-1.038,3.963-.333,5.6,1.568,2.69,3.114,5.645,6,8.493,8.971,4.228,4.387,8.425,8.8,12.714,13.123,1.462,1.477,1.985,2.955.947,5-4.546-.4-7.478-3.788-10.986-5.94-6.281-3.91-10.812-9.721-15.691-15.153C1073.441,866.461,1073.138,863.65,1074.131,860.847Z" transform="translate(-794.66 -427.417)"/>
    <path id="Path_16" data-name="Path 16" d="M753.909,617.561c-1.6.644-2.273,1.152-2.955,1.152-6.486,0-12.721-1.023-18.358-4.546-1.038-.652-2.273-.955-3.266-1.682a57.862,57.862,0,0,1-6.539-5.357c-1.394-1.4.811-4.546,3.334-4.788a5.3,5.3,0,0,1,2.712.417c6.872,3.387,14.29,5.751,20.374,10.607C750.613,614.538,751.909,615.788,753.909,617.561Z" transform="translate(-709.549 -364.88)"/>
    <path id="Path_17" data-name="Path 17" d="M773.055,348.355A10.555,10.555,0,0,1,766,342.536c-2.326-4.644-4.175-9.38-4.546-14.585a12.638,12.638,0,0,1,.318-4.546,3.607,3.607,0,0,1,6.463-1.1,17.535,17.535,0,0,1,2.773,5.713c.993,4.008,1.515,8.137,2.341,12.183A20.933,20.933,0,0,1,773.055,348.355Z" transform="translate(-719.004 -296.644)"/>
    <path id="Path_18" data-name="Path 18" d="M733.318,343.14c-4.91.5-8.789,1.235-12.714,0-3.334-1.068-6.766-1.856-10.024-3.106a14.065,14.065,0,0,1-4.023-2.993,3.13,3.13,0,0,1-.508-4.175,3.3,3.3,0,0,1,3.894-1.652,12.12,12.12,0,0,1,2.606.864q9.494,4.546,18.942,9.175C731.969,341.45,732.272,342.026,733.318,343.14Z" transform="translate(-705.46 -299.15)"/>
    <path id="Path_19" data-name="Path 19" d="M1091.013,903.563c-7.781.917-13.577-2.455-19.4-5.72-1.6-.894-3.152-1.871-4.652-2.909a11.729,11.729,0,0,1-2.349-2.152,3.106,3.106,0,0,1,0-4.22,2.834,2.834,0,0,1,4.084-.652c2.106,1.356,4.258,2.644,6.349,4.031q7.213,4.819,14.4,9.713a11.783,11.783,0,0,1,1.568,1.909Z" transform="translate(-792.289 -433.947)"/>
    <path id="Path_21" data-name="Path 21" d="M1165.856,360.247l-1.136-.879a5.137,5.137,0,0,1,1.235-.909c.144-.053.758.538.758.841S1166.205,359.883,1165.856,360.247Z" transform="translate(-816.749 -305.786)" fill="#fff"/>
  </g>
</svg>
