<svg xmlns="http://www.w3.org/2000/svg" width="866.694" height="96.57" viewBox="0 0 866.694 96.57">
  <g id="Group_3" data-name="Group 3" transform="translate(-58.774 -874.294)">
    <path id="Path_22" data-name="Path 22" d="M1846.943,1191.891c-3.258,5.523-11.971,3.849-16.373-3.266,0-1.318,2.432-2.053,1.167-3.91a1.727,1.727,0,0,1,.523-1.591c2.735-1.652.894-3.894.758-5.834-.1-1.326-1-2.576-1.159-3.91-.758-6.478,4.546-11.577,10.835-9.85,4.228,1.152,8.137,3.432,12.191,5.213.28.121.72.212.758.424,1.349,3.531,4.948,5.652,5.781,9.539a9.66,9.66,0,0,1-4.243,9.971,27.483,27.483,0,0,1-5.637,3.144C1850.315,1192.27,1848.746,1191.891,1846.943,1191.891Zm4.455-9.562c-1.682-5.705-4.334-7.508-7.812-6.41a15.448,15.448,0,0,1-.045,3.531c-.47,1.811-1.243,3.553-1.887,5.3C1846,1186.451,1847.761,1182.1,1851.4,1182.329Z" transform="translate(-936.133 -263.802)"/>
    <path id="Path_23" data-name="Path 23" d="M1216.032,1196.121c3.644-.341,7.72.871,11.524,3.144,7.183,4.281,6.91,12.342,1.356,16.934-2.478,2.053-4.895,4.061-8.38,4.448-4.72.515-8.478-.758-11.168-4.735-1.333-1.985-2.273-4.273-4.895-5.145a2.94,2.94,0,0,1-1.75-2c-.136-2.72-.386-5.584.326-8.137.386-1.371,2.546-2.372,4.076-3.243a11.366,11.366,0,0,1,3.932-1.22,38.312,38.312,0,0,1,4.978-.046Zm-3.175,9.653c1.114,2.576,2.091,4.849,2.917,6.773,3.372,1.372,5.478,0,7.3-2.038,1.356-1.515,1.114-2.546-.6-3.614A10.312,10.312,0,0,0,1212.858,1205.773Z" transform="translate(-814.945 -321.767)"/>
    <path id="Path_24" data-name="Path 24" d="M808.085,1544.735c0,7-3.326,11.2-8.539,14.282-2.97,1.758-6.251,1.637-9.471,1.9a4.9,4.9,0,0,1-4.963-2.765c-1.341-2.857-2.667-5.69-1.75-9.221,1.341-5.129,2.159-10.259,6.273-14.259s8.774-4.107,13.183-.114C806.169,1537.59,807.26,1541.355,808.085,1544.735Zm-12.077-5.3a28.232,28.232,0,0,0-6.349,9.736c-.758,1.765.94,4.41,2.569,4.645,3.091.447,7.956-5.084,6.91-8.062a55.435,55.435,0,0,0-3.129-6.342Z" transform="translate(-724.285 -590.085)"/>
  </g>
</svg>
