<svg xmlns="http://www.w3.org/2000/svg" width="40.524" height="40.3" viewBox="0 0 40.524 40.3"><path d="M126.265,311.184a34.561,34.561,0,0,0-11.287-5.485c.73-4.817,1.236-9.651,1.491-14.52A1.682,1.682,0,0,0,113.627,290q-5.217,5.023-10.388,10.094a64.669,64.669,0,0,0-10.375-7.3,1.6,1.6,0,0,0-2.33,1.791,40.027,40.027,0,0,0,5.507,12.667c-.011,0-.02.006-.031.011a31.628,31.628,0,0,0-9.016,6.69c-.969,1-.354,3.224,1.256,3.031l12.042-1.447a63.11,63.11,0,0,0,6.941,13.469,1.792,1.792,0,0,0,3.309-.9c.31-3.249-.159-10.282,2.57-11.78,1.47-.806,4.206-.674,5.882-.942l6.864-1.1C127.467,314.036,127.3,311.942,126.265,311.184Zm-11.131,1.34c-1.8.277-4.675.153-6.062,1.581-.9.925-.88,2.4-1.067,3.585-.254,1.612-.418,3.256-.558,4.9a59.073,59.073,0,0,1-4.26-9.447,1.806,1.806,0,0,0-1.712-1.3l-7.687.924a44.889,44.889,0,0,1,3.935-2.576,1.6,1.6,0,0,0,.792-1,.8.8,0,0,0,.244-1.091A56.748,56.748,0,0,1,94.5,297.549a61.624,61.624,0,0,1,7.645,5.937,1.685,1.685,0,0,0,2.332,0q4.21-4.049,8.394-8.125c-.291,3.726-.741,7.428-1.363,11.13a1.7,1.7,0,0,0,1.164,2.051,32.055,32.055,0,0,1,8.051,3.121Q117.931,312.094,115.134,312.524Z" transform="translate(-86.531 -289.551)" fill="#3c3c3b"/></svg>